<?xml version="1.0" encoding="UTF-8"?>
<svg width="46px" height="47px" viewBox="0 0 46 47" version="1.1" xmlns="http://www.w3.org/2000/svg" xmlns:xlink="http://www.w3.org/1999/xlink">
    <!-- Generator: Sketch 50.2 (55047) - http://www.bohemiancoding.com/sketch -->
    <title>Group 6</title>
    <desc>Created with Sketch.</desc>
    <defs>
        <linearGradient x1="100%" y1="100%" x2="0%" y2="0%" id="linearGradient-1">
            <stop stop-color="#5172C1" offset="0%"></stop>
            <stop stop-color="#64D1B5" offset="100%"></stop>
        </linearGradient>
    </defs>
    <g id="Page-1" stroke="none" stroke-width="1" fill="none" fill-rule="evenodd">
        <g id="Secure-Multiparty-Computation" transform="translate(-408.000000, -2963.000000)">
            <g id="Group-19" transform="translate(330.000000, 2931.000000)">
                <g id="Group-26" transform="translate(45.000000, 0.000000)">
                    <g id="Group-6" transform="translate(33.000000, 32.000000)">
                        <rect id="Rectangle-5" fill="#D2F6FF" x="7" y="5" width="39" height="42" rx="4.32"></rect>
                        <path d="M39.9695122,37.0025122 C37.955722,36.9805988 36.1960537,38.3545756 35.7249463,40.3113707 L34.4912488,40.3113707 C33.283861,40.3113707 32.2999659,39.2836634 32.2999659,38.0762195 L32.2999659,29.2453415 L34.9492854,29.2453415 C37.4364268,29.2475332 39.798639,28.160639 41.4156512,26.271722 C43.0328317,24.3806171 43.7384268,21.878161 43.3505683,19.4216488 C42.9627098,16.9651366 41.5164585,14.8001634 39.3952415,13.5027951 C39.4237289,13.1784839 39.4434506,12.8497634 39.4434506,12.494778 C39.4434506,9.53871707 38.3763067,6.68363171 36.4347701,4.45263171 C34.4932896,2.2240439 31.8110969,0.773417073 28.8834774,0.370243902 C25.9558579,-0.0351507317 22.9803311,0.63320122 20.5058677,2.25259756 C18.809814,3.36798537 17.4139384,4.88654634 16.4409823,6.66809268 C16.0553116,6.62645763 15.667453,6.60673317 15.2774067,6.60673317 C13.129936,6.604542 11.0437799,7.31232829 9.34116278,8.62052341 C7.80285546,9.80165756 6.63271644,11.3990917 5.96874571,13.2200746 C5.21490668,13.6188946 4.52249449,14.1272844 3.91546278,14.7276966 L3.91546278,14.7298878 C2.32016034,16.3229463 1.42394571,18.4857878 1.4217579,20.7429853 C1.4217579,22.9978268 2.31802863,25.1606682 3.91327498,26.7560829 C5.50852132,28.3514975 7.67355059,29.2476 9.92861644,29.2454121 L12.577936,29.2454121 L12.577936,38.0762902 C12.577936,39.283678 11.5940408,40.3114414 10.386653,40.3114414 L9.15295546,40.3114414 C8.68182571,38.3545902 6.92217985,36.9806487 4.90838961,37.0025829 C3.2364018,37.0025829 1.71127741,37.9536048 0.974996927,39.4546634 C0.238716439,40.9557219 0.418402537,42.7438317 1.43955205,44.0673975 C2.46069595,45.3909634 4.14362278,46.0176853 5.78273741,45.6867658 C7.41966424,45.3536865 8.72785937,44.1199609 9.15296668,42.5027804 L10.3866642,42.5027804 C12.8036838,42.5027804 14.7692862,40.4933658 14.7692862,38.0763463 L14.7692862,29.2454682 L21.3433594,29.2454682 L21.3433594,37.1187609 C19.2068277,37.6709741 17.8131399,39.7242121 18.0914399,41.9155512 C18.3697342,44.1046463 20.2323472,45.7459487 22.4390008,45.7459487 C24.6456545,45.7459487 26.5082618,44.1046463 26.7865618,41.9155512 C27.0648562,39.7242682 25.671174,37.6709853 23.5346423,37.1187609 L23.5346423,29.2454682 L30.1087155,29.2454682 L30.1087155,38.0763463 C30.1087155,40.4933658 32.0743179,42.5027804 34.4913374,42.5027804 L35.725035,42.5027804 C36.1501479,44.1199609 37.4583374,45.3536585 39.0952642,45.6867658 C40.7343789,46.0176517 42.4173057,45.3909409 43.4384496,44.0673975 C44.4595935,42.7438317 44.639274,40.9557219 43.9030047,39.4546634 C43.1667355,37.9536048 41.6415999,37.0025829 39.969612,37.0025829 L39.9695122,37.0025122 Z M4.90853659,43.5547073 C4.02326098,43.5547073 3.22342195,43.0200302 2.88375122,42.2026439 C2.54409732,41.3831146 2.73255146,40.4408439 3.3592678,39.814122 C3.98598976,39.1874 4.92826049,38.9989683 5.74778976,39.3386054 C6.56513122,39.6782593 7.09985317,40.478059 7.09985317,41.3633907 C7.097662,42.5729663 6.11814585,43.5524859 4.90857024,43.5546737 L4.90853659,43.5547073 Z M24.6301951,41.3634244 C24.6301951,42.2487 24.095518,43.048539 23.2781317,43.3882098 C22.4586024,43.7278637 21.5163317,43.5394095 20.8896098,42.9126932 C20.2628878,42.2859712 20.0744561,41.3437005 20.4140932,40.5241712 C20.7537471,39.7068298 21.5535468,39.1721078 22.4388785,39.1721078 C23.6484541,39.174299 24.6279737,40.1538151 24.6301615,41.3633907 L24.6301951,41.3634244 Z M3.6132439,20.740839 C3.61105273,19.0644756 4.27721463,17.4582341 5.4671,16.2771561 C6.0061639,15.7446668 6.63723902,15.3085756 7.32751951,14.990839 L7.76797512,14.7848544 L7.91041244,14.3202993 C8.9118661,11.0683798 11.9402368,8.79816756 15.2777051,8.79816756 C15.8058132,8.79597639 16.3295344,8.84418495 16.8466978,8.9449861 L17.6925368,9.11371634 L18.0562959,8.33143585 C18.8561349,6.60250902 20.1205178,5.13213585 21.7113885,4.0846822 C23.7405495,2.75674073 26.1838788,2.20889195 28.5855837,2.54199927 C30.9894763,2.87507854 33.1895105,4.06493585 34.7826812,5.8947261 C36.3757398,7.72446024 37.2522641,10.06917 37.2522641,12.4951651 C37.2456901,12.9509578 37.215012,13.4089383 37.1602305,13.8625432 L37.0703846,14.7543822 L37.7452944,15.0918427 L37.7474856,15.0918427 C40.3726831,16.3912866 41.7575636,19.3276573 41.0914051,22.1831354 C40.4230587,25.0362012 37.8789221,27.0544232 34.9492831,27.0544232 L9.92864898,27.0544232 C6.44229776,27.052232 3.61767337,24.2254232 3.61318556,20.7412037 L3.6132439,20.740839 Z M39.9695122,43.5545951 C39.0842366,43.5545951 38.2843976,43.019918 37.9447268,42.2025317 C37.6050729,41.3830024 37.7935271,40.4407317 38.4202434,39.8140098 C39.0469654,39.1872878 39.9892361,38.9988561 40.8087654,39.3384932 C41.6261068,39.6781471 42.1608288,40.4779468 42.1608288,41.3632785 C42.1586376,42.5728541 41.1791215,43.5523737 39.9695459,43.5545615 L39.9695122,43.5545951 Z" id="Shape" fill="url(#linearGradient-1)" fill-rule="nonzero"></path>
                    </g>
                </g>
            </g>
        </g>
    </g>
</svg>