<?xml version="1.0" encoding="UTF-8"?>
<svg width="45px" height="34px" viewBox="0 0 45 34" version="1.1" xmlns="http://www.w3.org/2000/svg" xmlns:xlink="http://www.w3.org/1999/xlink">
    <!-- Generator: Sketch 50.2 (55047) - http://www.bohemiancoding.com/sketch -->
    <title>ic_community</title>
    <desc>Created with Sketch.</desc>
    <defs>
        <linearGradient x1="100%" y1="100%" x2="0%" y2="0%" id="linearGradient-1">
            <stop stop-color="#5172C1" offset="0%"></stop>
            <stop stop-color="#64D1B5" offset="100%"></stop>
        </linearGradient>
    </defs>
    <g id="Page-1" stroke="none" stroke-width="1" fill="none" fill-rule="evenodd">
        <g id="About-Us-2" transform="translate(-795.000000, -2621.000000)" fill="url(#linearGradient-1)">
            <g id="Our-Values" transform="translate(109.000000, 2350.000000)">
                <g id="ic_community" transform="translate(686.000000, 266.000000)">
                    <g id="np_community_133749_000000" transform="translate(0.000000, 5.000000)">
                        <path d="M25.0209,26.6346 C24.416208,26.374446 25.196679,25.22835 25.421679,24.89085 C25.797852,24.314292 25.938477,24.124446 26.068554,23.46003 C26.1212886,23.206905 26.335746,22.763934 26.564256,22.52484 C26.792775,22.292811 27.168948,21.12561 26.968554,20.53152 C26.9439444,20.4612075 26.683785,20.035818 26.71191,19.677222 C26.76816,18.907299 26.7013629,18.112752 26.469333,17.377992 C26.163477,16.400682 25.263513,15.592032 24.296643,15.236982 C23.63922,14.997915 23.055633,14.96628 22.500153,14.96628 L22.4896059,14.96628 C21.9341349,14.96628 21.3505659,14.994405 20.6966259,15.236982 C19.7228259,15.592059 18.8263359,16.400682 18.5169159,17.377992 C18.2813679,18.112761 18.2251179,18.907272 18.2743389,19.677222 C18.3024639,20.039328 18.0423099,20.461203 18.0176949,20.53152 C17.8208199,21.122145 18.1969929,22.28931 18.4219929,22.52484 C18.6540219,22.767417 18.8684739,23.206869 18.9176949,23.46003 C19.0477719,24.124482 19.1919159,24.314328 19.5680889,24.89085 C19.7930889,25.22835 20.5700589,26.37441 19.9688679,26.6346 C19.5715989,26.806869 15.4829079,29.43306 15.4829079,30.90609 C15.4829079,31.99941 15.4055646,33.36354 22.4895879,33.36354 C29.5735779,33.36354 29.4997779,31.99599 29.4997779,30.90609 C29.5103241,29.57715 25.4216979,26.80686 25.0208379,26.6346 L25.0209,26.6346 Z M40.0536,12.5019 C39.448908,12.241746 40.232898,11.09565 40.454379,10.75464 C40.834071,10.178082 40.971177,9.991746 41.104773,9.32382 C41.1575076,9.070695 41.368446,8.627724 41.600475,8.38863 C41.828994,8.156601 42.205167,6.9894 42.008283,6.39882 C41.9836743,6.3249921 41.727033,5.903118 41.748129,5.541012 C41.804379,4.771089 41.7410973,3.976542 41.509071,3.241782 C41.203215,2.264472 40.306761,1.455822 39.336381,1.100772 C38.678958,0.861714 38.098881,0.83358 37.543401,0.83358 L37.5328539,0.83358 C36.9773829,0.83358 36.3938139,0.861705 35.7398739,1.100772 C34.7660739,1.455849 33.8695839,2.267982 33.5636739,3.241782 C33.3281259,3.976551 33.2718759,4.771062 33.3210969,5.541012 C33.3492219,5.903118 33.0890679,6.324993 33.0679719,6.39882 C32.8675779,6.989445 33.2437509,8.15661 33.4722699,8.38863 C33.7042989,8.627697 33.9152409,9.070659 33.9679719,9.32382 C34.0980489,9.991791 34.2386739,10.178118 34.6183659,10.75464 C34.8433659,11.095659 35.6238459,12.2382 35.0191449,12.5019 C34.6218759,12.674169 30.5331849,15.30036 30.5331849,16.77339 C30.5331849,17.86671 30.4558416,19.23435 37.5433749,19.23435 C44.6273649,19.23435 44.5500549,17.8668 44.5500549,16.77339 C44.5430241,15.44445 40.4543349,12.67416 40.0535649,12.5019 L40.0536,12.5019 Z M14.4774,16.77339 C14.4774,15.44445 10.3887,12.67416 9.98793,12.5019 C9.383238,12.241746 10.163709,11.09565 10.388709,10.75464 C10.768401,10.178082 10.905507,9.991746 11.039103,9.32382 C11.0883213,9.070695 11.302776,8.627724 11.534805,8.38863 C11.763324,8.156601 12.135978,6.9894 11.939103,6.39882 C11.9144934,6.3249921 11.657853,5.903118 11.682459,5.541012 C11.738709,4.771089 11.6719119,3.976542 11.439882,3.241782 C11.137536,2.264472 10.237572,1.455822 9.267192,1.100772 C8.613288,0.861714 8.029692,0.83358 7.474212,0.83358 L7.4636649,0.83358 C6.9081939,0.83358 6.3246249,0.861705 5.6706849,1.100772 C4.6968849,1.455849 3.8003949,2.267982 3.4944849,3.241782 C3.2624559,3.976551 3.2026869,4.771062 3.2519079,5.541012 C3.2800329,5.903118 3.0198789,6.324993 2.9987829,6.39882 C2.8019079,6.989445 3.1745619,8.15661 3.3995619,8.38863 C3.6315909,8.627697 3.8460429,9.070659 3.8987829,9.32382 C4.0288599,9.991791 4.1694849,10.178118 4.5491769,10.75464 C4.7741769,11.095659 5.5511469,12.2382 4.9499559,12.5019 C4.5526869,12.674169 0.4639959,15.30036 0.4639959,16.77339 C0.4639959,17.86671 0.3866526,19.23435 7.4741859,19.23435 C14.5511559,19.23435 14.4772659,17.87031 14.4772659,16.77339 L14.4774,16.77339 Z M37.5291,22.56714 C35.96814,24.05421 33.45102,25.31286 30.43809,26.10738 C29.717388,26.297226 29.28852,27.03546 29.47833,27.75618 C29.640051,28.360872 30.184974,28.76166 30.78261,28.76166 C30.898629,28.76166 31.014639,28.7475975 31.127139,28.7159571 C34.621659,27.7913871 37.479879,26.3394171 39.392379,24.5182671 C39.933783,24.0049881 39.95136,23.1507171 39.4380819,22.6092771 C38.9248029,22.0713831 38.0705319,22.0538061 37.5290919,22.5670896 L37.5291,22.56714 Z M14.5611,26.10738 C11.54817,25.309332 9.03105,24.0543 7.47009,22.56714 C6.932196,22.053861 6.07788,22.071438 5.5611,22.6128429 C5.047821,23.1542469 5.065398,24.0085629 5.6068029,24.5218329 C7.5157929,26.3428929 10.3740129,27.7948629 13.8685329,28.7195229 C13.9845519,28.7511633 14.1005619,28.7652267 14.2130619,28.7652267 C14.8107159,28.7652267 15.3556119,28.3644477 15.5173419,27.7597467 C15.7106979,27.0355257 15.2817939,26.3007567 14.5610919,26.1074367 L14.5611,26.10738 Z M14.5189116,12.19968 C19.3951116,10.89891 25.6069116,10.89891 30.4831116,12.19968 C30.5991306,12.2313204 30.7186596,12.2453829 30.8311596,12.2453829 C31.4288136,12.2453829 31.9737096,11.8481139 32.1354396,11.2434129 C32.3287956,10.5227109 31.8998916,9.7844229 31.1791896,9.5911029 C28.4791896,8.8704009 25.5612096,8.5048029 22.5026496,8.5048029 C19.4440896,8.5048029 16.5225996,8.8704279 13.8225996,9.5911029 C13.1018976,9.7844589 12.6730296,10.5227829 12.8663496,11.2434129 C13.0561956,11.9641149 13.7980296,12.3929829 14.5186596,12.1996629 L14.5189116,12.19968 Z" id="Shape" fill-rule="nonzero"></path>
                    </g>
                </g>
            </g>
        </g>
    </g>
</svg>