<svg xmlns="http://www.w3.org/2000/svg" width="128" height="128" viewBox="0 0 128 128">
    <defs>
        <filter id="a" width="111.7%" height="120.4%" x="-5.9%" y="-9.5%" filterUnits="objectBoundingBox">
            <feOffset dy="2" in="SourceAlpha" result="shadowOffsetOuter1"/>
            <feGaussianBlur in="shadowOffsetOuter1" result="shadowBlurOuter1" stdDeviation="9"/>
            <feColorMatrix in="shadowBlurOuter1" result="shadowMatrixOuter1" values="0 0 0 0 0 0 0 0 0 0 0 0 0 0 0 0 0 0 0.0500169837 0"/>
            <feMerge>
                <feMergeNode in="shadowMatrixOuter1"/>
                <feMergeNode in="SourceGraphic"/>
            </feMerge>
        </filter>
        <linearGradient id="b" x1="100%" x2="0%" y1="100%" y2="0%">
            <stop offset="0%" stop-color="#5172C1"/>
            <stop offset="100%" stop-color="#64D1B5"/>
        </linearGradient>
    </defs>
    <g fill="none" fill-rule="nonzero" filter="url(#a)" transform="translate(18.2 16.2)">
        <circle cx="45.9" cy="45.9" r="45.45" fill="#FFF" stroke="#EDEDED" stroke-width=".9"/>
        <g fill="url(#b)" transform="translate(21.6 28.8)">
            <path d="M28.214 6.865c.747 0 1.503.205 2.056.6l4.067 3.727a44.73 44.73 0 0 1 3.53 2.894l3.694 3.433 6.513-7.548L37.952.28l-2.437 2.391s-.815-.184-1.38-.46L30.317.355C29.853.128 29.281.018 28.7.018c-.837 0-1.7.225-2.305.653l-5.906 4.143a2.229 2.229 0 0 0-.503 3.157l.35.473c.48.648 1.266 1 2.052 1a2.45 2.45 0 0 0 1.269-.344l2.802-1.789c.491-.3 1.12-.446 1.756-.446zM21.362 27.313l-.43-.407a2.276 2.276 0 0 0-1.576-.63c-.605 0-1.207.236-1.655.706l-.006-.012a2.295 2.295 0 0 0-.076-3.231l-.428-.407a2.295 2.295 0 0 0-3.149.002l.857-.897a2.294 2.294 0 0 0-.077-3.234l-.427-.406a2.27 2.27 0 0 0-1.572-.628c-.586 0-1.174.223-1.618.667a2.286 2.286 0 0 0-.212-3.058l-.426-.407a2.281 2.281 0 0 0-1.578-.63c-.605 0-1.207.236-1.655.706L3.04 19.95a2.29 2.29 0 0 0 .078 3.231l.425.407c.438.417 1.001.623 1.564.623.518 0 1.038-.175 1.46-.52l-1.131 1.187a2.297 2.297 0 0 0 .076 3.233l.43.407c.44.42 1.008.63 1.576.63.604 0 1.207-.236 1.655-.707l.883-.926c-.786.914-.735 2.3.148 3.14l.43.407c.441.421 1.009.63 1.576.63.605 0 1.21-.238 1.657-.706l1.42-1.467a2.294 2.294 0 0 0 .076 3.233l.427.407c.442.42 1.01.629 1.577.629.604 0 1.207-.235 1.657-.706l2.418-2.536c.865-.91.83-2.365-.08-3.233z"/>
            <path d="M41.495 19.673l-5.776-5.365a42.52 42.52 0 0 0-2.309-1.83l-.076-.053-.068-.062-3.983-3.649c-.262-.163-.664-.262-1.069-.262-.357 0-.701.079-.928.21l-2.782 1.775-.033.021a4.032 4.032 0 0 1-2.088.574c-1.319 0-2.563-.613-3.324-1.64l-.351-.473a3.798 3.798 0 0 1-.706-2.881 3.793 3.793 0 0 1 1.572-2.518l2.336-1.638c-1.077-.495-2.829-.516-3.953-.033 0 0-1.249.547-1.647.716-.929.394-2.229.388-2.229.388L11.03.109.524 10.547l4.744 4.77.918-.963a3.893 3.893 0 0 1 2.803-1.197c1 0 1.95.38 2.672 1.067l.425.407c.58.553.951 1.242 1.11 1.972.86.083 1.663.448 2.295 1.049l.423.404a3.846 3.846 0 0 1 1.199 2.711c.006.215-.009.43-.035.638.443.182.852.444 1.207.782l.427.407a3.85 3.85 0 0 1 1.141 2.133 3.837 3.837 0 0 1 2.173 1.034l.431.409a3.877 3.877 0 0 1 .724 4.65l1.173 1.09c.92.857 2.375.803 3.231-.117l.4-.431a2.283 2.283 0 0 0-.072-3.17l2.963 2.749a2.295 2.295 0 0 0 3.234-.122l.4-.43a2.293 2.293 0 0 0-.105-3.216l.761.71c.92.856 2.376.802 3.232-.12l.4-.431a2.294 2.294 0 0 0-.12-3.234l-.643-.6a2.29 2.29 0 0 0 3.178-.16l.402-.43a2.294 2.294 0 0 0-.12-3.234z"/>
        </g>
    </g>
</svg>
