<svg xmlns="http://www.w3.org/2000/svg" width="124" height="127" viewBox="0 0 124 127">
    <defs>
        <filter id="a" width="111.8%" height="120.4%" x="-5.9%" y="-9.5%" filterUnits="objectBoundingBox">
            <feOffset dy="2" in="SourceAlpha" result="shadowOffsetOuter1"/>
            <feGaussianBlur in="shadowOffsetOuter1" result="shadowBlurOuter1" stdDeviation="9"/>
            <feColorMatrix in="shadowBlurOuter1" result="shadowMatrixOuter1" values="0 0 0 0 0 0 0 0 0 0 0 0 0 0 0 0 0 0 0.0500169837 0"/>
            <feMerge>
                <feMergeNode in="shadowMatrixOuter1"/>
                <feMergeNode in="SourceGraphic"/>
            </feMerge>
        </filter>
        <linearGradient id="b" x1="100%" x2="0%" y1="100%" y2="0%">
            <stop offset="0%" stop-color="#5172C1"/>
            <stop offset="100%" stop-color="#64D1B5"/>
        </linearGradient>
    </defs>
    <g fill="none" fill-rule="nonzero" filter="url(#a)" transform="translate(17 15)">
        <ellipse cx="44.874" cy="46.324" fill="#FFF" stroke="#EDEDED" stroke-width=".9" rx="43.734" ry="45.009"/>
        <path fill="url(#b)" d="M61.225 43.623c-.991-13.96-6.32-18.423-16.233-18.423 0 0-16.915 0-16.915 20.91 0 17.977-5.577 16.449-5.577 16.449s3.965 3.505 15.366 4.59c.186-1.148.31-2.55 0-4.017-1.797-1.976-4.337-5.419-4.337-8.99-2.54-.763-3.097-2.612-2.291-4.399 7.992-6.694 6.506-15.874 6.506-15.874C40.472 44.77 53.05 47.957 56.52 48.15c0 0 4.152 2.613 0 5.61v.062c-.124.128-.185.319-.185.574 0 1.148-.31 2.04-.93 2.741-.867.892-2.48 1.466-4.647 1.594-.372-.957-1.3-1.659-2.355-1.659-1.424 0-2.54 1.148-2.54 2.613 0 1.466 1.116 2.614 2.54 2.614 1.116 0 1.983-.702 2.355-1.722 1.734-.127 3.16-.446 4.276-1.02-.743 1.404-1.734 2.551-3.407 3.762 0 1.53.124 2.74.31 3.697 11.338-1.084 14.808-4.652 14.808-4.652-.004 0-4.59-4.78-5.52-18.741z"/>
    </g>
</svg>
