<svg xmlns="http://www.w3.org/2000/svg" width="47" height="40" viewBox="0 0 47 40">
    <defs>
        <linearGradient id="a" x1="100%" x2="0%" y1="100%" y2="0%">
            <stop offset="0%" stop-color="#5172C1"/>
            <stop offset="100%" stop-color="#64D1B5"/>
        </linearGradient>
    </defs>
    <g fill="none" fill-rule="evenodd" transform="translate(1 1)">
        <rect width="41" height="33.111" x="5" y="5" fill="#D2F6FF" rx="3"/>
        <path fill="url(#a)" fill-rule="nonzero" stroke="url(#a)" d="M40.419 0H3.58C1.637 0 0 1.637 0 3.581V28.14c0 1.944 1.637 3.58 3.581 3.58h12.79v2.866h-3.887a1.834 1.834 0 0 0-1.842 1.842c0 1.023.818 1.842 1.842 1.842h18.93a1.834 1.834 0 0 0 1.841-1.842 1.834 1.834 0 0 0-1.841-1.842h-3.889v-2.865H40.42c1.944 0 3.581-1.637 3.581-3.581V3.58C44 1.535 42.363 0 40.419 0zM3.58 1.023H40.42a2.533 2.533 0 0 1 2.558 2.558v20.977H1.024V3.58a2.533 2.533 0 0 1 2.558-2.558zm27.833 34.484c.41 0 .819.307.819.818 0 .512-.307.819-.82.819H12.587a.807.807 0 0 1-.819-.819c0-.511.307-.818.82-.818h18.827zm-4.81-1.023h-9.208v-2.866h9.209v2.866zm13.815-3.787H3.582a2.533 2.533 0 0 1-2.559-2.558v-2.558h41.954v2.558a2.533 2.533 0 0 1-2.559 2.558z"/>
    </g>
</svg>
