<?xml version="1.0" encoding="UTF-8"?>
<svg width="40px" height="30px" viewBox="0 0 40 30" version="1.1" xmlns="http://www.w3.org/2000/svg" xmlns:xlink="http://www.w3.org/1999/xlink">
    <!-- Generator: Sketch 50.2 (55047) - http://www.bohemiancoding.com/sketch -->
    <title>ic_developer</title>
    <desc>Created with Sketch.</desc>
    <defs>
        <linearGradient x1="100%" y1="100%" x2="0%" y2="0%" id="linearGradient-1">
            <stop stop-color="#5172C1" offset="0%"></stop>
            <stop stop-color="#64D1B5" offset="100%"></stop>
        </linearGradient>
    </defs>
    <g id="Page-1" stroke="none" stroke-width="1" fill="none" fill-rule="evenodd">
        <g id="About-Us-2" transform="translate(-612.000000, -2981.000000)" fill="url(#linearGradient-1)">
            <g id="Our-Values" transform="translate(109.000000, 2350.000000)">
                <g id="ic_developer" transform="translate(500.000000, 623.000000)">
                    <g id="np_embed_103458_000000" transform="translate(3.000000, 8.000000)">
                        <polygon id="Shape" fill-rule="nonzero" points="11.398 9.398 9.9996 7.8003 8.6012 6.398 -0.0004 14.9996 8.6012 23.398 11.3981 20.6011 7.8004 16.9995 5.8004 14.9995 7.8004 12.9995"></polygon>
                        <polygon id="Shape" fill-rule="nonzero" points="30 7.801 28.6016 9.3987 32.1993 13.0003 34.1993 15.0003 32.1993 17.0003 28.6016 20.6019 31.3985 23.3988 38.1993 16.6019 40.0001 15.0003 31.3985 6.3987"></polygon>
                        <polygon id="Shape" fill-rule="nonzero" points="17.918 29.59 14.0703 28.4923 22.0781 0.4143 25.9258 1.512"></polygon>
                    </g>
                </g>
            </g>
        </g>
    </g>
</svg>