<svg xmlns="http://www.w3.org/2000/svg" width="61" height="60" viewBox="0 0 61 60">
    <defs>
        <linearGradient id="a" x1="100%" x2="0%" y1="100%" y2="0%">
            <stop offset="0%" stop-color="#5172C1"/>
            <stop offset="100%" stop-color="#64D1B5"/>
        </linearGradient>
    </defs>
    <g fill="none" fill-rule="evenodd">
        <rect width="47" height="54" x="14" y="6" fill="#D2F6FF" rx="3"/>
        <path fill="url(#a)" fill-rule="nonzero" d="M.663 47.507a4.64 4.64 0 0 1-.421-3.87A89.4 89.4 0 0 0 3.614 30.24a4.665 4.665 0 0 1 6.067-3.632l1.597.514a5.827 5.827 0 0 1 0-2.827 5.923 5.923 0 0 1 6.45-4.44 5.922 5.922 0 0 1 5.212 5.842 5.825 5.825 0 0 1-1.53 3.986c1.836.35 3.587.612 5.294.851v-.002a1.527 1.527 0 0 1-.397 3.025 92.627 92.627 0 0 1-6.868-1.157c-.2-.041-.39-.122-.557-.24a2.495 2.495 0 0 1-1-2.65l.048-.2.003-.002c.136-.531.444-1.005.875-1.347.7-.54 1.105-1.38 1.09-2.264a2.869 2.869 0 0 0-2.54-2.841 2.869 2.869 0 0 0-3.123 2.18 2.812 2.812 0 0 0 .146 1.787c.22.505.266 1.069.134 1.605l-.048.2a2.494 2.494 0 0 1-2.135 1.837 1.511 1.511 0 0 1-.612-.055 73.982 73.982 0 0 1-3.006-.95 1.62 1.62 0 0 0-1.349.149c-.404.237-.681.64-.758 1.102a92.503 92.503 0 0 1-3.489 13.853 1.614 1.614 0 0 0 1.225 2.1 92.215 92.215 0 0 1 17.434 4.775 1.528 1.528 0 0 1 .09 2.831c-.377.163-.8.17-1.18.015a89.398 89.398 0 0 0-16.816-4.58 4.641 4.641 0 0 1-3.21-2.197h.002zm34.992-36.221a5.918 5.918 0 0 1-1.39 11.655 5.825 5.825 0 0 1-3.986-1.53c-.349 1.836-.612 3.587-.85 5.294h.002a1.526 1.526 0 0 1-1.507 1.33h-.196a1.522 1.522 0 0 1-1.322-1.727c.282-2.21.674-4.517 1.157-6.868.04-.2.122-.39.239-.557a2.495 2.495 0 0 1 2.65-1l.2.048.003.003c.53.136 1.004.444 1.346.875.54.7 1.38 1.105 2.265 1.09a2.869 2.869 0 0 0 2.84-2.54 2.869 2.869 0 0 0-2.18-3.122 2.812 2.812 0 0 0-1.787.145 2.515 2.515 0 0 1-1.604.134l-.201-.047a2.494 2.494 0 0 1-1.837-2.136 1.511 1.511 0 0 1 .055-.612c.307-1.024.613-2.033.95-3.006a1.62 1.62 0 0 0-.148-1.349 1.576 1.576 0 0 0-1.103-.758A92.503 92.503 0 0 1 15.398 3.12a1.614 1.614 0 0 0-2.1 1.225 92.215 92.215 0 0 1-4.775 17.434 1.521 1.521 0 0 1-1.956.85 1.52 1.52 0 0 1-.89-1.94 89.398 89.398 0 0 0 4.58-16.816 4.66 4.66 0 0 1 2.2-3.214 4.665 4.665 0 0 1 3.871-.416 89.704 89.704 0 0 0 13.394 3.372 4.665 4.665 0 0 1 3.632 6.067c-.172.52-.348 1.059-.513 1.597a5.78 5.78 0 0 1 2.814.007zm3.575-5.651a89.335 89.335 0 0 0 16.858 4.615 4.657 4.657 0 0 1 3.63 6.074 89.629 89.629 0 0 0-3.371 13.394 4.667 4.667 0 0 1-2.2 3.207 4.673 4.673 0 0 1-3.867.423l-1.597-.514a5.837 5.837 0 0 1 0 2.829 5.91 5.91 0 0 1-5.73 4.467 6.02 6.02 0 0 1-2.566-.574 5.88 5.88 0 0 1-3.367-5.29 5.825 5.825 0 0 1 1.53-3.986c-1.836-.35-3.587-.612-5.294-.852v.003a1.527 1.527 0 0 1 .397-3.025c2.21.282 4.517.674 6.868 1.157.201.04.39.122.557.24a2.495 2.495 0 0 1 1 2.649l-.048.2-.002.003a2.524 2.524 0 0 1-.876 1.347c-.7.54-1.104 1.38-1.09 2.264a2.869 2.869 0 0 0 2.54 2.841 2.869 2.869 0 0 0 3.123-2.18 2.812 2.812 0 0 0-.146-1.787 2.515 2.515 0 0 1-.134-1.605l.048-.2a2.494 2.494 0 0 1 2.135-1.837c.206-.024.416-.005.612.055 1.024.306 2.033.612 3.006.95.45.15.942.095 1.349-.15.404-.236.682-.64.758-1.102a92.503 92.503 0 0 1 3.489-13.853 1.614 1.614 0 0 0-1.224-2.1 92.215 92.215 0 0 1-17.435-4.775 1.521 1.521 0 0 1-.85-1.956 1.52 1.52 0 0 1 1.94-.89l-.043-.042zm-8.477 47.714c4.699.804 9.33 1.97 13.853 3.489a1.615 1.615 0 0 0 2.1-1.224 92.116 92.116 0 0 1 4.775-17.435c.139-.385.426-.698.799-.868a1.52 1.52 0 0 1 2.047 1.958 89.284 89.284 0 0 0-4.616 16.86 4.657 4.657 0 0 1-6.074 3.63 89.346 89.346 0 0 0-13.394-3.375 4.667 4.667 0 0 1-3.206-2.2 4.672 4.672 0 0 1-.424-3.867c.173-.521.35-1.06.515-1.597a5.78 5.78 0 0 1-2.83 0 5.92 5.92 0 0 1 1.397-11.699 5.825 5.825 0 0 1 3.987 1.53c.349-1.836.612-3.586.85-5.294h-.002a1.524 1.524 0 0 1 3.018.385 92.627 92.627 0 0 1-1.157 6.868h.002c-.043.201-.124.39-.239.558a2.492 2.492 0 0 1-2.652.997l-.2-.048a2.507 2.507 0 0 1-1.347-.875 2.799 2.799 0 0 0-2.26-1.079 2.869 2.869 0 0 0-2.84 2.54 2.869 2.869 0 0 0 2.18 3.123 2.812 2.812 0 0 0 1.787-.146 2.515 2.515 0 0 1 1.604-.134l.201.048a2.494 2.494 0 0 1 1.837 2.135c.023.206.004.417-.055.613a73.982 73.982 0 0 1-.95 3.006c-.15.45-.095.942.148 1.348a1.58 1.58 0 0 0 1.146.754z"/>
    </g>
</svg>
