<?xml version="1.0" encoding="UTF-8"?>
<svg width="45px" height="47px" viewBox="0 0 45 47" version="1.1" xmlns="http://www.w3.org/2000/svg" xmlns:xlink="http://www.w3.org/1999/xlink">
    <!-- Generator: Sketch 50.2 (55047) - http://www.bohemiancoding.com/sketch -->
    <title>Group 8</title>
    <desc>Created with Sketch.</desc>
    <defs>
        <linearGradient x1="100%" y1="100%" x2="0%" y2="0%" id="linearGradient-1">
            <stop stop-color="#5172C1" offset="0%"></stop>
            <stop stop-color="#64D1B5" offset="100%"></stop>
        </linearGradient>
    </defs>
    <g id="Page-1" stroke="none" stroke-width="1" fill="none" fill-rule="evenodd">
        <g id="Secure-Multiparty-Computation" transform="translate(-988.000000, -2963.000000)">
            <g id="Group-21" transform="translate(910.000000, 2931.000000)">
                <g id="Group-24" transform="translate(45.000000, 0.000000)">
                    <g id="Group-8" transform="translate(34.000000, 33.000000)">
                        <rect id="Rectangle-5" fill="#D2F6FF" x="9" y="4" width="33" height="41" rx="4.32"></rect>
                        <path d="M43.4288182,44.467162 C43.4288182,43.9787835 43.0325872,43.5825466 42.5442028,43.5825466 L38.3146208,43.5825466 L38.3146208,19.1081876 C38.3146208,18.6198091 37.9183838,18.2235722 37.4300054,18.2235722 L33.8915438,18.2235722 L33.8915438,14.9799825 C33.8915438,13.7475363 33.4331126,12.5587902 32.6014797,11.6488748 L22.179531,0.236156833 C21.8454944,-0.0748385514 21.3271746,-0.0794503463 20.9862438,0.22694209 C20.6453131,0.533334526 20.5969187,1.04933953 20.871061,1.41562927 L31.2977277,12.8625523 C31.8275769,13.4407782 32.1224251,14.1963754 32.1293841,14.9796139 L32.1293841,18.2001447 L15.7710764,18.2001447 L14.5915892,15.9125882 L14.5915892,15.9102847 C14.3497,15.5025301 13.8267508,15.3574001 13.4098021,15.5808598 C12.9905297,15.8066196 12.8246644,16.3226393 13.0343005,16.748847 L19.661839,29.8777188 C20.2584826,31.054906 20.0672877,32.478606 19.1780664,33.4553393 C18.291151,34.4320727 16.89281,34.7615034 15.6626638,34.2823368 L15.4691572,34.2063129 C14.7987956,33.9436942 14.2343521,33.4645334 13.8704213,32.8425309 L9.47040333,25.3003001 C9.31836154,25.0422873 9.14327846,24.7957921 8.9474659,24.5700206 L3.69739154,18.4537898 C2.9002941,17.5254155 2.45798641,16.3459283 2.44648641,15.1203821 L2.34051538,1.05381804 L2.34051538,1.05612158 C2.33130005,0.570043115 1.93737256,0.180706192 1.4513,0.176106192 C1.21632256,0.178409731 0.992868718,0.272859526 0.826997436,0.441030808 C0.663437949,0.606896192 0.571290513,0.832655936 0.571290513,1.06763337 L0.677261538,15.1341975 C0.691083359,16.7743923 1.28540513,18.3570282 2.35437436,19.6033334 L5.23857436,22.9598 L5.23857436,43.6008257 L0.884615385,43.6008257 C0.396231026,43.6008257 0,43.9970626 0,44.4854411 C0,44.9738195 0.396231026,45.3700564 0.884615385,45.3700564 L42.5446923,45.3700564 C42.7819697,45.3700564 43.0100354,45.2733031 43.1758949,45.1051318 C43.3417603,44.9346606 43.4339077,44.704289 43.4293018,44.4670293 L43.4288182,44.467162 Z M7.00507462,25.0056235 L7.59481821,25.708244 C7.72151872,25.853374 7.83440154,26.0123276 7.93115487,26.1781989 L12.3427318,33.7339938 C12.90944,34.6992271 13.7848318,35.4433066 14.8260831,35.8510553 L15.0195956,35.9270791 C15.5978215,36.1528389 16.2105828,36.2680217 16.8302854,36.2703276 C18.5488572,36.263417 20.1406931,35.3673122 21.0391085,33.9044532 C21.9375238,32.4392943 22.0135418,30.6148045 21.2418328,29.0805276 L16.65982,19.9996558 L36.5453841,19.9996558 L36.5453841,43.5893994 L7.00507462,43.5893994 L7.00507462,25.0056235 Z" id="Shape" stroke="url(#linearGradient-1)" stroke-width="0.5" fill="url(#linearGradient-1)" fill-rule="nonzero"></path>
                    </g>
                </g>
            </g>
        </g>
    </g>
</svg>