<svg xmlns="http://www.w3.org/2000/svg" width="54" height="62" viewBox="0 0 54 62">
    <defs>
        <linearGradient id="a" x1="100%" x2="0%" y1="100%" y2="0%">
            <stop offset="0%" stop-color="#5172C1"/>
            <stop offset="100%" stop-color="#64D1B5"/>
        </linearGradient>
    </defs>
    <g fill="none" fill-rule="evenodd" transform="translate(1 1)">
        <rect width="44" height="54" x="9" y="6" fill="#D2F6FF" rx="3"/>
        <path fill="url(#a)" fill-rule="nonzero" stroke="url(#a)" stroke-width=".75" d="M.938.01A.938.938 0 0 0 0 .948v58.114c0 .518.42.938.938.938H49.37c.518 0 .938-.42.938-.938V.948A.938.938 0 0 0 49.37.01C33.21-.013 17.056.01.938.01zm.937 1.875h2.97v13.443c-.089.508.25.99.758 1.08h.006a.224.224 0 0 0 .026.01.935.935 0 0 0 .896-.361l4.095-4.096 4.18 4.18c.59.593 1.602.176 1.602-.66V1.888h32.029v56.24H1.879V1.888l-.004-.003zm4.844 0h7.81v11.33l-3.242-3.246a.94.94 0 0 0-1.325 0L6.72 13.212V1.885zm-.332 20.153c-1.266-.017-1.266 1.891 0 1.875h37.534c1.266.016 1.266-1.892 0-1.875H6.387zm0 4.69c-1.266-.015-1.266 1.892 0 1.876h37.534c1.266.016 1.266-1.891 0-1.875H6.387zm0 4.692c-1.266-.016-1.266 1.892 0 1.875h37.534c1.266.017 1.266-1.891 0-1.875H6.387zm0 4.691c-1.266-.016-1.266 1.892 0 1.876h37.534c1.266.016 1.266-1.892 0-1.876H6.387zm0 4.695c-1.266-.016-1.266 1.891 0 1.875h37.534c1.266.016 1.266-1.891 0-1.875H6.387zm0 5.472c-1.266-.016-1.266 1.892 0 1.876h18.766c1.266.016 1.266-1.892 0-1.876H6.387zm30.27 4.584c-1.266-.016-1.266 1.892 0 1.875h7.264c1.266.017 1.266-1.891 0-1.875h-7.264z"/>
    </g>
</svg>
