<?xml version="1.0" encoding="UTF-8"?>
<svg width="75px" height="75px" viewBox="0 0 75 75" version="1.1" xmlns="http://www.w3.org/2000/svg" xmlns:xlink="http://www.w3.org/1999/xlink">
    <!-- Generator: Sketch 50.2 (55047) - http://www.bohemiancoding.com/sketch -->
    <title>Group 11</title>
    <desc>Created with Sketch.</desc>
    <defs>
        <filter x="-102.9%" y="-74.3%" width="305.7%" height="305.7%" filterUnits="objectBoundingBox" id="filter-1">
            <feOffset dx="0" dy="10" in="SourceAlpha" result="shadowOffsetOuter1"></feOffset>
            <feGaussianBlur stdDeviation="10" in="shadowOffsetOuter1" result="shadowBlurOuter1"></feGaussianBlur>
            <feColorMatrix values="0 0 0 0 0.762037628   0 0 0 0 0.762037628   0 0 0 0 0.762037628  0 0 0 0.5 0" type="matrix" in="shadowBlurOuter1" result="shadowMatrixOuter1"></feColorMatrix>
            <feMerge>
                <feMergeNode in="shadowMatrixOuter1"></feMergeNode>
                <feMergeNode in="SourceGraphic"></feMergeNode>
            </feMerge>
        </filter>
        <linearGradient x1="100%" y1="100%" x2="0%" y2="0%" id="linearGradient-2">
            <stop stop-color="#5172C1" offset="0%"></stop>
            <stop stop-color="#64D1B5" offset="100%"></stop>
        </linearGradient>
    </defs>
    <g id="Page-1" stroke="none" stroke-width="1" fill="none" fill-rule="evenodd">
        <g id="For-Business---how-it-works" transform="translate(-682.000000, -1214.000000)" fill-rule="nonzero" stroke="url(#linearGradient-2)">
            <g id="Group-11" filter="url(#filter-1)" transform="translate(702.000000, 1224.000000)">
                <circle id="Oval-10-Copy-3" fill="#FFFFFF" cx="17.5" cy="17.5" r="17.5"></circle>
                <path d="M20.9136585,12 C20.842401,12.0007982 20.775192,12.0343247 20.7314654,12.0909991 L19.4593618,13.3442374 L10.1684267,15.9617577 C10.068828,15.9896964 10,16.0798966 10,16.1828645 L10,18.8163241 C10,18.9192982 10.068828,19.0087014 10.1684267,19.0374309 L12.8568278,19.7949567 C12.6600598,20.9324511 13.3612995,22.0562948 14.5054609,22.3781462 C15.6496224,22.6998341 16.8464366,22.1107337 17.2877664,21.0434949 L19.4587606,21.6549513 L20.7308642,22.9089865 L20.7316741,22.9081883 C20.7770197,22.9664607 20.8466582,23.0007834 20.9211536,22.9999864 C20.9891711,22.9999864 21.0531421,22.9704517 21.0976772,22.9193642 C21.1422124,22.8682767 21.1616462,22.8012253 21.1511198,22.7349709 L21.1511198,12.2612113 C21.160027,12.1981509 21.1414029,12.1350885 21.1009152,12.0855969 C21.0604285,12.0361054 21.0013164,12.0057737 20.9373475,12.0009837 C20.9292501,12.0001855 20.9219625,12.0001855 20.9138651,12.0001855 L20.9136585,12 Z M20.6836861,12.7878718 L20.6836861,22.211885 L19.8140239,21.354575 L19.8140239,13.6450591 L20.6836861,12.7878718 Z M24.6838461,13.1055749 L24.6838461,13.1047767 C24.6239256,13.1063731 24.5664325,13.1319164 24.5235164,13.174223 L22.411601,15.2553243 C22.3249581,15.3463235 22.3273876,15.4884061 22.4164593,15.5762153 C22.5063401,15.6648194 22.650474,15.6664175 22.7419737,15.5802065 L24.8530599,13.4991051 C24.9218879,13.4328507 24.9429407,13.3322717 24.9048835,13.2452614 C24.8676348,13.1582533 24.7801835,13.1023758 24.6838248,13.1047707 L24.6838461,13.1055749 Z M19.3485028,13.855131 L19.3485028,21.1447075 L10.4663523,18.6430536 L10.4663523,16.3567848 L19.3485028,13.855131 Z M22.5769058,17.2700254 L22.5769058,17.2692272 C22.5145558,17.268429 22.4546353,17.292376 22.4100981,17.3354816 C22.365563,17.3785872 22.3404596,17.4376566 22.3404596,17.499121 C22.3404596,17.5605855 22.3655609,17.6196549 22.4100981,17.6627605 C22.4546353,17.7058661 22.5145558,17.7298119 22.5769058,17.7290149 L24.6888212,17.7290149 C24.7511712,17.7298131 24.8119023,17.7058661 24.8564374,17.6627605 C24.9009725,17.6196549 24.9260759,17.5605855 24.9260759,17.499121 C24.9260759,17.4376566 24.9009746,17.3785872 24.8564374,17.3354816 C24.8119023,17.292376 24.7511712,17.2684302 24.6888212,17.2692272 L22.5769058,17.2692272 L22.5769058,17.2700254 Z M22.5744768,19.3494919 L22.5744768,19.3486937 C22.479737,19.3478955 22.3939047,19.4053682 22.3582687,19.4915794 C22.3226389,19.5785876 22.3436932,19.6783676 22.4117113,19.7438291 L24.5236266,21.8249305 C24.5673533,21.8704311 24.6272738,21.8975708 24.6904344,21.8983698 C24.7544033,21.8999662 24.8151344,21.876018 24.86048,21.8313164 C24.9050152,21.7874138 24.9301185,21.7267464 24.9284975,21.664483 C24.9268781,21.6014226 24.9001562,21.5423511 24.8531916,21.5000445 L22.7421054,19.4181258 C22.6983787,19.3734242 22.6376477,19.3486794 22.5744892,19.3486794 L22.5744768,19.3494919 Z M13.3077951,19.9226326 L16.8382261,20.9164484 C16.4698017,21.7434328 15.5361685,22.1904486 14.6340647,21.9366049 C13.7320024,21.6827613 13.1773447,20.8174612 13.3077122,19.9226326 L13.3077951,19.9226326 Z" id="Shape" stroke-width="0.2" fill="url(#linearGradient-2)"></path>
            </g>
        </g>
    </g>
</svg>