<?xml version="1.0" encoding="UTF-8"?>
<svg width="75px" height="75px" viewBox="0 0 75 75" version="1.1" xmlns="http://www.w3.org/2000/svg" xmlns:xlink="http://www.w3.org/1999/xlink">
    <!-- Generator: Sketch 50.2 (55047) - http://www.bohemiancoding.com/sketch -->
    <title>Group 6</title>
    <desc>Created with Sketch.</desc>
    <defs>
        <filter x="-102.9%" y="-74.3%" width="305.7%" height="305.7%" filterUnits="objectBoundingBox" id="filter-1">
            <feOffset dx="0" dy="10" in="SourceAlpha" result="shadowOffsetOuter1"></feOffset>
            <feGaussianBlur stdDeviation="10" in="shadowOffsetOuter1" result="shadowBlurOuter1"></feGaussianBlur>
            <feColorMatrix values="0 0 0 0 0.762037628   0 0 0 0 0.762037628   0 0 0 0 0.762037628  0 0 0 0.5 0" type="matrix" in="shadowBlurOuter1" result="shadowMatrixOuter1"></feColorMatrix>
            <feMerge>
                <feMergeNode in="shadowMatrixOuter1"></feMergeNode>
                <feMergeNode in="SourceGraphic"></feMergeNode>
            </feMerge>
        </filter>
        <linearGradient x1="100%" y1="100%" x2="0%" y2="0%" id="linearGradient-2">
            <stop stop-color="#5172C1" offset="0%"></stop>
            <stop stop-color="#64D1B5" offset="100%"></stop>
        </linearGradient>
    </defs>
    <g id="Page-1" stroke="none" stroke-width="1" fill="none" fill-rule="evenodd">
        <g id="For-Business---how-it-works" transform="translate(-682.000000, -866.000000)" fill-rule="nonzero" stroke="url(#linearGradient-2)">
            <g id="Group-6" filter="url(#filter-1)" transform="translate(702.000000, 876.000000)">
                <circle id="Oval-10-Copy" fill="#FFFFFF" cx="17.5" cy="17.5" r="17.5"></circle>
                <path d="M24.5361951,12.2022207 C24.537583,12.1894489 24.538971,12.1766779 24.5382769,12.1639047 C24.537583,12.1553901 24.5348071,12.1482946 24.5334193,12.1397805 C24.5306434,12.1270088 24.5271735,12.1142377 24.5209279,12.102885 C24.51954,12.0993373 24.51954,12.0957896 24.5174581,12.0922417 C24.5146822,12.0879846 24.5112125,12.0858559 24.5084366,12.080889 C24.5014969,12.0702459 24.4931693,12.0610226 24.4841477,12.0517969 C24.477902,12.045411 24.4716562,12.0397346 24.4640229,12.0340583 C24.460553,12.0312201 24.4577773,12.0276724 24.4536135,12.0248342 C24.4473678,12.0212865 24.4397342,12.0198673 24.4327941,12.0163196 C24.4251606,12.0127718 24.417527,12.0092241 24.4091998,12.0063859 C24.3960144,12.0028382 24.3828287,12.001419 24.3696432,12.001419 C24.3627035,12.0007095 24.3564579,12 24.3495185,12 C24.3321695,12.001419 24.3162083,12.0056764 24.3002478,12.0120623 C24.296778,12.0134814 24.294002,12.0127718 24.2905322,12.0141909 L24.2870624,12.0163196 C24.2870624,12.0163196 24.2863685,12.0163196 24.2856746,12.0170291 L11.1052995,18.0403452 C11.0345148,18.0729848 10.9921833,18.1481964 11.0012046,18.2262397 C11.0102261,18.3049988 11.0671305,18.3688594 11.1434669,18.3837596 L14.7756159,19.112461 L16.1024828,22.8786683 C16.1066465,22.8907306 16.1128921,22.9020841 16.1198319,22.9127266 C16.1212197,22.9148553 16.1219136,22.9176935 16.1233016,22.9198221 C16.134405,22.9368513 16.1489781,22.9510413 16.1656332,22.9631043 C16.169797,22.966652 16.1739607,22.9687807 16.1781246,22.9716188 C16.1940856,22.9815524 16.2114349,22.9893575 16.2301721,22.9936141 C16.2322538,22.9943236 16.2336419,22.9957426 16.2350297,22.9964521 L16.2378056,22.9964521 C16.2384995,22.9971618 16.2391936,22.9971618 16.2398875,22.9971618 C16.2496029,22.9992905 16.2593194,23 16.2697281,23 C16.2940171,23 16.3169168,22.9936141 16.3384307,22.9836804 C16.3446765,22.9808422 16.3502282,22.9772945 16.3564733,22.9730371 C16.3717404,22.9638131 16.3849265,22.9531689 16.3974174,22.9403975 C16.4008872,22.9368498 16.4050509,22.9354306 16.4078269,22.9318829 L18.3439071,20.4867726 L21.6672924,21.7816948 C21.7137881,21.8001425 21.7658356,21.7973049 21.8102493,21.7745994 C21.8546629,21.7518939 21.8879732,21.7107406 21.9018516,21.6624905 L24.5327391,12.2318957 C24.5334331,12.229767 24.5327391,12.2283478 24.5334331,12.2269288 C24.5355151,12.2184142 24.5355151,12.2098997 24.536209,12.2020944 L24.5361951,12.2022207 Z M11.7624716,18.1383476 L22.7409951,13.1218844 L14.8692958,18.7613867 L11.7624716,18.1383476 Z M22.7083066,13.587983 L16.741598,19.5836892 C16.7228608,19.602137 16.7075932,19.6248425 16.6971844,19.6510955 C16.6930205,19.6624482 16.6902447,19.6730907 16.6881627,19.6844435 L16.2190479,22.1373645 L15.1225812,19.0238042 L22.7083066,13.587983 Z M16.5813536,22.1359695 L16.9970299,19.9625986 L17.9949515,20.3514258 L16.5813536,22.1359695 Z M21.6132434,21.371793 L17.185024,19.6468831 L24.0060737,12.7934538 L21.6132434,21.371793 Z" id="Shape" stroke-width="0.2" fill="url(#linearGradient-2)"></path>
            </g>
        </g>
    </g>
</svg>