<?xml version="1.0" encoding="UTF-8"?>
<svg width="75px" height="75px" viewBox="0 0 75 75" version="1.1" xmlns="http://www.w3.org/2000/svg" xmlns:xlink="http://www.w3.org/1999/xlink">
    <!-- Generator: Sketch 50.2 (55047) - http://www.bohemiancoding.com/sketch -->
    <title>Group 7</title>
    <desc>Created with Sketch.</desc>
    <defs>
        <filter x="-102.9%" y="-74.3%" width="305.7%" height="305.7%" filterUnits="objectBoundingBox" id="filter-1">
            <feOffset dx="0" dy="10" in="SourceAlpha" result="shadowOffsetOuter1"></feOffset>
            <feGaussianBlur stdDeviation="10" in="shadowOffsetOuter1" result="shadowBlurOuter1"></feGaussianBlur>
            <feColorMatrix values="0 0 0 0 0.762037628   0 0 0 0 0.762037628   0 0 0 0 0.762037628  0 0 0 0.5 0" type="matrix" in="shadowBlurOuter1" result="shadowMatrixOuter1"></feColorMatrix>
            <feMerge>
                <feMergeNode in="shadowMatrixOuter1"></feMergeNode>
                <feMergeNode in="SourceGraphic"></feMergeNode>
            </feMerge>
        </filter>
        <linearGradient x1="100%" y1="100%" x2="0%" y2="0%" id="linearGradient-2">
            <stop stop-color="#5172C1" offset="0%"></stop>
            <stop stop-color="#64D1B5" offset="100%"></stop>
        </linearGradient>
    </defs>
    <g id="Page-1" stroke="none" stroke-width="1" fill="none" fill-rule="evenodd">
        <g id="For-Business---how-it-works" transform="translate(-682.000000, -1040.000000)" fill-rule="nonzero">
            <g id="Group-7" filter="url(#filter-1)" transform="translate(702.000000, 1050.000000)">
                <circle id="Oval-10-Copy-2" stroke="url(#linearGradient-2)" fill="#FFFFFF" cx="17.5" cy="17.5" r="17.5"></circle>
                <path d="M16.0657424,20.5581745 C15.919922,20.6837919 15.7310954,20.7594094 15.5235942,20.7594094 C15.2911584,20.7594094 15.0817747,20.6656651 14.9309706,20.5125455 C14.7758018,20.3619297 14.6823265,20.1494491 14.6823265,19.9182162 C14.6823265,19.6963587 14.7689467,19.4932519 14.9079185,19.3445096 C14.6461929,19.0426573 14.5776426,18.6820567 14.6480594,18.3620776 C14.6842026,18.1977203 14.7571128,18.0464662 14.8599317,17.9189865 C14.9646236,17.79087 15.0992273,17.6833698 15.2562691,17.6171341 C15.5753299,17.4821429 15.9760225,17.5027672 16.3910569,17.788371 C16.8534398,18.1058543 17.3002526,18.4283293 17.7283685,18.7501803 C17.9745239,18.9351603 18.2113149,19.1201562 18.4393956,19.3032643 L18.4393956,11.1988323 C18.4393956,11.034475 18.3733404,10.8882285 18.2661615,10.7807315 C18.1589762,10.6732393 18.0112797,10.6069989 17.8492606,10.6069989 L13.1967154,10.6069989 C13.0328298,10.6069989 12.887003,10.6732441 12.7798145,10.7807315 C12.6726292,10.8882253 12.6065805,11.034459 12.6065805,11.1988323 L12.6065805,20.5988599 C12.6065805,20.7613453 12.6726356,20.9094636 12.7798145,21.0169606 C12.8869935,21.1244576 13.0328138,21.1906933 13.1967154,21.1906933 L16.5711029,21.1906933 C16.4090838,20.9738274 16.2451822,20.7682248 16.0719481,20.5669899 L16.0650933,20.5576157 L16.0657424,20.5581745 Z M19.0457707,19.6969826 L19.6838924,20.3369409 C19.8116412,20.4650574 19.8135109,20.6750469 19.6838924,20.8056624 C19.5561436,20.9356539 19.3442681,20.9356539 19.2146496,20.8081622 L18.6450781,20.2344556 C18.6089349,20.2232064 18.5765295,20.2044576 18.5472413,20.1794592 C18.1758385,19.8619759 17.7819898,19.5463804 17.3669714,19.2357767 C16.9525593,18.9226771 16.5101176,18.6051938 16.0477346,18.2877104 C15.8265138,18.1345956 15.6333224,18.1164736 15.4918668,18.1758425 C15.4301732,18.2008409 15.3759584,18.2445884 15.3323364,18.2989593 C15.2868447,18.3558308 15.255063,18.4220761 15.2388611,18.4933146 C15.2027179,18.6508052 15.2482087,18.8357883 15.4052514,18.9889144 C15.8246409,19.3976397 16.1910663,19.7751191 16.5331793,20.1725812 C16.8428917,20.5356776 17.1326627,20.9150289 17.4174564,21.3468727 C17.4810197,21.3924954 17.5246417,21.4631148 17.5358583,21.5456118 C17.5470752,21.5756098 17.5520602,21.6074829 17.5520602,21.6393561 C17.5520602,21.6531053 17.5520602,21.6668551 17.5495677,21.680603 C17.5950594,22.1287018 17.6704615,22.4668078 17.8044495,22.7611566 C17.9502699,23.076768 18.1690084,23.3573737 18.4967796,23.6773529 C18.6151815,23.7935949 18.6195431,23.9860848 18.5036343,24.104829 C18.3877259,24.2260707 18.1957885,24.2279458 18.0755185,24.1117036 C17.6947672,23.7392319 17.4355303,23.4036218 17.2573029,23.0123993 C17.1139744,22.6992997 17.0248671,22.3611937 16.9700205,21.9455888 L15.1043122,21.9593378 C14.9697084,21.9618376 14.8880687,22.021209 14.8513129,22.1012037 L14.8469507,22.1174523 C14.8263857,22.1724487 14.8195306,22.2361949 14.8238938,22.2980645 C14.8307487,22.3668104 14.8488204,22.4330557 14.8806021,22.489924 C14.9373104,22.5949172 15.0426212,22.6680404 15.1815881,22.6474146 C15.3573268,22.6199155 15.470737,22.5992929 15.5691992,22.5836683 C15.9723804,22.5105483 16.1774089,22.474301 16.6877787,22.5699191 C16.7837458,22.5880427 16.8678725,22.6499139 16.9089995,22.7436518 C17.0753897,23.1186354 17.3327442,23.4636049 17.6287529,23.7810882 C17.9297389,24.1035632 18.2756009,24.4022957 18.6152252,24.6835254 C18.6607169,24.7153985 18.6974823,24.7610212 18.7199171,24.816016 L18.8408108,25.1197402 L18.9162145,25.3209751 C19.0713833,25.4809647 19.7431564,25.4397178 20.4087013,25.2934761 C20.693495,25.2316049 20.9670578,25.149735 21.2013761,25.0509959 C21.4201082,24.9572516 21.6020686,24.8522568 21.7117458,24.742264 C21.770946,24.6853925 21.8008579,24.6347702 21.791511,24.600398 C21.7802941,24.5753997 21.770946,24.5504013 21.7684541,24.5229023 C21.6886889,24.0291905 21.6182706,23.6317123 21.5540771,23.2823591 C21.3534197,22.1536806 21.2350163,21.5024751 21.2854917,20.0788878 C21.2923466,19.8595261 21.2237981,19.677042 21.1053978,19.5189243 C20.9757793,19.3451916 20.775122,19.1945774 20.5451748,19.0552105 C20.1214301,18.801483 19.8958381,18.4065008 19.6702462,18.0065268 C19.4970121,17.7002908 19.3194069,17.389687 19.0458281,17.190948 L19.0458281,19.6976647 L19.0457707,19.6969826 Z M17.0360064,15.3329469 C17.0360064,14.0536543 15.1702982,14.4030075 15.1702982,13.7905514 C15.1702982,13.6193146 15.3273367,13.5349361 15.5579092,13.5349361 C15.8451916,13.5349361 16.3144344,13.6855519 16.6877037,13.9030401 L17.0248393,13.199342 C16.7219868,13.0030987 16.3094411,12.861236 15.8856964,12.815623 L15.8856964,12.093798 L15.2201514,12.093798 L15.2201514,12.8412533 C14.609453,12.9574953 14.2268193,13.3324693 14.2268193,13.874306 C14.2268193,15.1285923 16.0925276,14.7542487 16.0925276,15.3798399 C16.0925276,15.5829467 15.9149224,15.6885718 15.6320111,15.6885718 C15.2649635,15.6885718 14.7209488,15.4760896 14.3582564,15.1586063 L14.0099058,15.8510572 C14.3333218,16.1185438 14.7664309,16.3104033 15.2194654,16.3810227 L15.2194654,17.1647156 L15.8850104,17.1647156 L15.8850104,16.4016453 C16.5455621,16.3260246 17.0353683,15.9604261 17.0353683,15.3348348 L17.0360064,15.3329469 Z M15.1926324,19.6307469 C15.1265772,19.7063676 15.0854471,19.8069915 15.0854471,19.9188562 C15.0854471,20.0375988 15.1353004,20.1475933 15.2131959,20.2275881 C15.2929611,20.3075828 15.4020161,20.3557045 15.5229082,20.3557045 C15.6276001,20.3557045 15.7235656,20.3194573 15.7983535,20.2575861 C15.6095333,20.0494717 15.4088759,19.8438691 15.1920102,19.6313709 L15.1926324,19.6307469 Z M19.0449731,16.5027907 C19.646323,16.7402793 19.9223904,17.2271115 20.1934645,17.7070803 C20.3804182,18.0383067 20.5648672,18.3626696 20.8540161,18.5364022 C21.143165,18.7101349 21.4005355,18.908874 21.5856067,19.1557379 C21.7862641,19.4182168 21.9003124,19.7269487 21.8865927,20.0969246 C21.8411011,21.4612037 21.9526479,22.0868749 22.1483184,23.174804 C22.210012,23.5266531 22.2829222,23.9241312 22.357702,24.3947246 C22.4623939,24.6828338 22.3670496,24.9453127 22.1346147,25.1740498 C21.9682245,25.3384071 21.722085,25.4846535 21.4329361,25.6058936 C21.1593733,25.7221357 20.8471563,25.8183758 20.5349553,25.8871233 C19.6282482,26.0833665 18.6555274,26.0402381 18.3911855,25.6265163 C18.3774759,25.603393 18.3681285,25.5833943 18.3594038,25.560271 C18.3388388,25.5009005 18.3114203,25.4252798 18.2771467,25.3409093 L18.1880346,25.1121722 C17.8484103,24.8309425 17.5000597,24.5272183 17.1878587,24.1934801 C16.8868726,23.8691332 16.6207759,23.5216518 16.4269783,23.1404287 C16.1241258,23.0973067 15.959602,23.1266795 15.6729418,23.1766759 C15.5501784,23.1997992 15.4062229,23.2247976 15.267256,23.2454218 C14.8391401,23.3116671 14.5219458,23.092307 14.3512004,22.7791962 C14.280782,22.6492047 14.2352919,22.5004624 14.2234516,22.3517201 C14.2072497,22.1986052 14.2259443,22.045484 14.2782902,21.9061171 L14.2895072,21.876119 C14.3007241,21.8511207 14.3125642,21.8236233 14.3256505,21.7986233 L13.195856,21.7986233 C12.8655802,21.7986233 12.5670828,21.6636321 12.3508393,21.4467742 C12.1345958,21.2299163 12,20.9305519 12,20.5993254 L12,11.1992979 C12,10.8680714 12.1346038,10.5687149 12.3508393,10.3518491 C12.5670748,10.1349832 12.8655802,10 13.195856,10 L17.8484012,10 C18.1761884,10 18.4746858,10.1349912 18.6934179,10.3518491 C18.9077949,10.5687149 19.0442572,10.8680714 19.0442572,11.1992979 L19.0442572,16.5026323 L19.0449731,16.5027907 Z" id="Shape" fill="url(#linearGradient-2)"></path>
            </g>
        </g>
    </g>
</svg>