<?xml version="1.0" encoding="UTF-8"?>
<svg width="75px" height="75px" viewBox="0 0 75 75" version="1.1" xmlns="http://www.w3.org/2000/svg" xmlns:xlink="http://www.w3.org/1999/xlink">
    <!-- Generator: Sketch 50.2 (55047) - http://www.bohemiancoding.com/sketch -->
    <title>Group 12</title>
    <desc>Created with Sketch.</desc>
    <defs>
        <filter x="-102.9%" y="-74.3%" width="305.7%" height="305.7%" filterUnits="objectBoundingBox" id="filter-1">
            <feOffset dx="0" dy="10" in="SourceAlpha" result="shadowOffsetOuter1"></feOffset>
            <feGaussianBlur stdDeviation="10" in="shadowOffsetOuter1" result="shadowBlurOuter1"></feGaussianBlur>
            <feColorMatrix values="0 0 0 0 0.762037628   0 0 0 0 0.762037628   0 0 0 0 0.762037628  0 0 0 0.5 0" type="matrix" in="shadowBlurOuter1" result="shadowMatrixOuter1"></feColorMatrix>
            <feMerge>
                <feMergeNode in="shadowMatrixOuter1"></feMergeNode>
                <feMergeNode in="SourceGraphic"></feMergeNode>
            </feMerge>
        </filter>
        <linearGradient x1="100%" y1="100%" x2="0%" y2="0%" id="linearGradient-2">
            <stop stop-color="#5172C1" offset="0%"></stop>
            <stop stop-color="#64D1B5" offset="100%"></stop>
        </linearGradient>
    </defs>
    <g id="Page-1" stroke="none" stroke-width="1" fill="none" fill-rule="evenodd">
        <g id="For-Business---how-it-works" transform="translate(-682.000000, -1388.000000)" fill-rule="nonzero">
            <g id="Group-12" filter="url(#filter-1)" transform="translate(702.000000, 1398.000000)">
                <circle id="Oval-10-Copy-4" stroke="url(#linearGradient-2)" fill="#FFFFFF" cx="17.5" cy="17.5" r="17.5"></circle>
                <path d="M20.5152617,20.361572 L20.5719333,20.2882066 C21.4253358,19.261091 21.894821,17.9697132 21.894821,16.6199365 C21.894821,13.5236231 19.4485427,11 16.447126,11 C13.4462783,11.0005731 11,13.52421 11,16.6199365 C11,19.7162499 13.4462783,22.239873 16.447695,22.239873 C17.6711328,22.239873 18.8373642,21.8289094 19.804696,21.0511188 L19.8613676,21.0069851 L23.4455159,24 L24,23.2955748 L20.5152617,20.361572 Z M16.4476608,21.3302301 C13.9302656,21.3302301 11.8816729,19.2176 11.8816729,16.6198778 C11.8816729,14.0228893 13.9295545,11.9095256 16.4476608,11.9095256 C18.965056,11.9095256 21.0136488,14.0221557 21.0136488,16.6198778 C21.0130932,19.2174532 18.9651982,21.3302301 16.4476608,21.3302301 Z M19.7474839,16.6349031 L18.2112171,16.6349031 L17.8984167,15.9161569 C17.8556356,15.8135598 17.741732,15.7401973 17.6284001,15.7401973 C17.5145022,15.7401973 17.4150495,15.8135627 17.3583835,15.9161569 L16.5327593,17.8086908 L15.6082399,15.1825029 C15.5654588,15.0650038 15.4660061,14.9916354 15.3521053,14.9773145 C15.2382074,14.9624125 15.1243038,15.0357779 15.0676378,15.1389532 L14.3281361,16.6348737 L13.23305,16.6348737 C13.0763653,16.6348737 12.9341315,16.7667025 12.9341315,16.9432432 C12.9341315,17.1048818 13.06192,17.2516126 13.23305,17.2516126 L14.5131538,17.2516126 C14.6270517,17.2516126 14.7265044,17.1931492 14.7692883,17.089974 L15.2815574,16.0479505 L16.2205277,18.7183044 C16.2633088,18.8358035 16.3627615,18.9091718 16.4766623,18.9234928 L16.4911075,18.9234928 C16.6050055,18.9234928 16.7044582,18.8501274 16.7611241,18.7475332 L17.6289776,16.7958668 L17.7567661,17.0893284 C17.7995471,17.1919255 17.9134508,17.2652879 18.0267826,17.2652879 L19.7480955,17.2652879 C19.9047802,17.2652879 20.0470139,17.1334591 20.0470139,16.9569185 C20.0464582,16.7815312 19.9181146,16.6348003 19.7475408,16.6348003 L19.7474839,16.6349031 Z" id="Combined-Shape" fill="url(#linearGradient-2)"></path>
            </g>
        </g>
    </g>
</svg>