<?xml version="1.0" encoding="UTF-8"?>
<svg width="25px" height="38px" viewBox="0 0 25 38" version="1.1" xmlns="http://www.w3.org/2000/svg" xmlns:xlink="http://www.w3.org/1999/xlink">
    <!-- Generator: Sketch 50.2 (55047) - http://www.bohemiancoding.com/sketch -->
    <title>ic_grant</title>
    <desc>Created with Sketch.</desc>
    <defs>
        <linearGradient x1="100%" y1="100%" x2="0%" y2="0%" id="linearGradient-1">
            <stop stop-color="#5172C1" offset="0%"></stop>
            <stop stop-color="#64D1B5" offset="100%"></stop>
        </linearGradient>
    </defs>
    <g id="Page-1" stroke="none" stroke-width="1" fill="none" fill-rule="evenodd">
        <g id="About-Us-2" transform="translate(-805.000000, -2976.000000)" fill="url(#linearGradient-1)">
            <g id="Our-Values" transform="translate(109.000000, 2350.000000)">
                <g id="ic_grant" transform="translate(686.000000, 622.000000)">
                    <g id="np_medal_495243_000000" transform="translate(10.000000, 4.000000)">
                        <path d="M13.3839341,11.3757802 L15.2972967,11.6155644 C15.4832503,11.6384011 15.6463705,11.494858 15.6463705,11.3072716 L15.6480016,0.959161758 C15.6480016,0.508966154 15.282617,0.141952967 14.8307928,0.141952967 L13.9679005,0.141952967 C13.5177049,0.141952967 13.1506917,0.507337582 13.1506917,0.959161758 L13.1506917,11.1130958 C13.1506917,11.2468516 13.251826,11.3594026 13.3839491,11.3757176 L13.3839341,11.3757802 Z" id="Shape" fill-rule="nonzero"></path>
                        <path d="M17.1096044,12.1654286 C17.8142747,12.4150009 18.4928462,12.7183912 19.1388044,13.075633 C19.1388044,13.075633 20.6411407,6.48576484 20.6411407,4.32101758 L20.6395092,1.52354945 C20.6395092,0.760167033 20.0212784,0.141936264 19.257896,0.141936264 L17.7115465,0.141936264 C17.2613509,0.141936264 16.8943377,0.507320879 16.8943377,0.959145055 L16.8943377,11.8651451 C16.8959692,12.0005336 16.9824226,12.1196114 17.1096516,12.1652824 L17.1096044,12.1654286 Z" id="Shape" fill-rule="nonzero"></path>
                        <path d="M7.9632967,12.1570769 C8.08074176,12.1162975 8.15903846,12.0070062 8.15903846,11.8830385 L8.15903846,0.959082418 C8.15903846,0.508886813 7.79365385,0.141873626 7.34182967,0.141873626 L5.79548022,0.141873626 C5.0320978,0.141873626 4.41386703,0.760104396 4.41386703,1.52348681 L4.41386703,4.32095495 C4.41386703,6.55568901 5.9162033,13.0755703 5.9162033,13.0755703 C6.56867582,12.7150798 7.25376154,12.4083989 7.96331758,12.1572231 L7.9632967,12.1570769 Z" id="Shape" fill-rule="nonzero"></path>
                        <path d="M9.51795604,11.7102637 C10.2161121,11.5536703 10.933811,11.447642 11.6662088,11.401971 C11.798336,11.3938148 11.9027316,11.2861587 11.9027316,11.1540314 L11.9027316,0.959174286 C11.9027316,0.508978681 11.537347,0.141965495 11.0855229,0.141965495 L10.2226305,0.141965495 C9.77243495,0.141965495 9.40542176,0.50735011 9.40542176,0.959174286 L9.40542176,11.6221413 C9.40705284,11.6808618 9.46088088,11.7232756 9.51797275,11.7102262 L9.51795604,11.7102637 Z" id="Shape" fill-rule="nonzero"></path>
                        <path d="M12.5274725,12.6222637 C5.64571429,12.6222637 0.0471868132,18.2203736 0.0471868132,25.1025495 C0.0471868132,31.9847253 5.6452967,37.5828352 12.5274725,37.5828352 C19.4096484,37.5828352 25.0077582,31.9847253 25.0077582,25.1025495 C25.0077582,18.2203736 19.4096484,12.6222637 12.5274725,12.6222637 Z M19.5921319,23.4698022 L16.5940154,25.9671538 C16.2416802,26.2607644 16.1062791,26.7387209 16.2514684,27.1742176 L17.8157738,31.8670088 C17.8581835,31.9926092 17.8157738,32.1296305 17.713011,32.2111886 C17.6559191,32.255231 17.5890391,32.2780686 17.5205305,32.2780686 C17.4634387,32.2780686 17.4063468,32.2617565 17.3557818,32.2307648 L13.1181554,29.5833758 C12.7576648,29.3582738 12.299318,29.3582738 11.9388191,29.5833758 L7.70119275,32.2307648 C7.58864176,32.3009062 7.44672637,32.2927508 7.34233077,32.2111907 C7.23956791,32.1296326 7.19715407,31.9926113 7.23956791,31.8670109 L8.80387341,27.1742197 C8.94905011,26.7403098 8.81202921,26.2607581 8.46132637,25.9671559 L5.46320989,23.4698043 C5.3620756,23.3866135 5.32456,23.2479636 5.37023099,23.1239959 C5.41427341,23.0000241 5.53171846,22.918466 5.66384154,22.918466 L9.15132286,22.918466 C9.57216242,22.918466 9.95876022,22.6803146 10.1463382,22.3034924 L12.2489492,18.0984375 C12.3549776,17.8863849 12.7007734,17.8863849 12.8067976,18.0984375 L14.9094086,22.3034924 C15.0969949,22.6802937 15.4835844,22.918466 15.904424,22.918466 L19.3919053,22.918466 C19.5223998,22.918466 19.6398448,23.0000241 19.6855158,23.1239959 C19.7295582,23.2479678 19.6920405,23.3866177 19.5925369,23.4698043 L19.5921319,23.4698022 Z" id="Shape" fill-rule="nonzero"></path>
                    </g>
                </g>
            </g>
        </g>
    </g>
</svg>