<?xml version="1.0" encoding="UTF-8"?>
<svg width="1440px" height="167px" viewBox="0 0 1440 167" version="1.1" xmlns="http://www.w3.org/2000/svg" xmlns:xlink="http://www.w3.org/1999/xlink">
    <!-- Generator: Sketch 50.2 (55047) - http://www.bohemiancoding.com/sketch -->
    <title>Group 9</title>
    <desc>Created with Sketch.</desc>
    <defs></defs>
    <g id="Page-1" stroke="none" stroke-width="1" fill="none" fill-rule="evenodd">
        <g id="Desktop-HD" transform="translate(0.000000, -1.000000)" fill="#E9F0FA" fill-rule="nonzero">
            <g id="Group-9" transform="translate(0.000000, 1.000000)">
                <g id="Group-3" opacity="0.747991071">
                    <path d="M165,67.4 L165,66.4 L165.5,66.9 L166,66.4 L166,67.4 L181.6,83 L179.216832,83 L165.5,69.2831683 L151.783168,83 L149.4,83 L165,67.4 Z M248,68.7831683 L233.783168,83 L231.4,83 L248,66.4 L264.4,83 L262.045545,83 L248,68.7831683 Z M165.5,57.1117647 L165,57.6117647 L165,56.6117647 L149.4,41.0117647 L165,25.4117647 L165,24.4117647 L165.5,24.9117647 L166,24.4117647 L166,25.4117647 L181.6,41.0117647 L166,56.6117647 L166,57.6117647 L165.5,57.1117647 Z M165.5,27.294933 L151.783168,41.0117647 L165.5,54.7285964 L179.216832,41.0117647 L165.5,27.294933 Z M248,57.6117647 L231.4,41.0117647 L248,24.4117647 L264.4,41.0117647 L248,57.6117647 Z M248,55.2285964 L262.045545,41.0117647 L248,26.794933 L233.783168,41.0117647 L248,55.2285964 Z M166,15.6 L166,16.6 L165.5,16.1 L165,16.6 L165,15.6 L149.4,-5.68434189e-14 L151.783168,-5.68434189e-14 L165.5,13.7168317 L179.216832,-5.68434189e-14 L181.6,-5.68434189e-14 L166,15.6 Z M248,16.6 L231.4,-5.68434189e-14 L233.783168,-5.68434189e-14 L248,14.2168317 L262.045545,-5.68434189e-14 L264.4,-5.68434189e-14 L248,16.6 Z M83,66.4 L99.6,83 L97.2168317,83 L83,68.7831683 L68.7831683,83 L66.4,83 L83,66.4 Z M83,24.4117647 L99.6,41.0117647 L83,57.6117647 L66.4,41.0117647 L83,24.4117647 Z M83,26.794933 L68.7831683,41.0117647 L83,55.2285964 L97.2168317,41.0117647 L83,26.794933 Z M83,14.2168317 L97.2168317,-5.68434189e-14 L99.6,-5.68434189e-14 L83,16.6 L66.4,-5.68434189e-14 L68.7831683,-5.68434189e-14 L83,14.2168317 Z M304.917647,-5.68434189e-14 L288.517647,16.6 L272.117647,-5.68434189e-14 L274.472103,-5.68434189e-14 L288.517647,14.2168317 L302.563192,-5.68434189e-14 L304.917647,-5.68434189e-14 Z M330,14.2168317 L330,16.6 L313.6,-5.68434189e-14 L315.954455,-5.68434189e-14 L330,14.2168317 Z M330,57.6117647 L313.6,41.0117647 L330,24.4117647 L330,26.794933 L315.954455,41.0117647 L330,55.2285964 L330,57.6117647 Z M272.117647,83 L288.517647,66.4 L304.917647,83 L302.563192,83 L288.517647,68.7831683 L274.472103,83 L272.117647,83 Z M315.954455,83 L313.6,83 L330,66.4 L330,68.7831683 L315.954455,83 Z M57.6117647,-5.68434189e-14 L41.0117647,16.6 L24.4117647,-5.68434189e-14 L26.794933,-5.68434189e-14 L41.0117647,14.2168317 L55.2285964,-5.68434189e-14 L57.6117647,-5.68434189e-14 Z M14.2168317,-5.68434189e-14 L16.6,-5.68434189e-14 L0,16.6 L0,14.2168317 L14.2168317,-5.68434189e-14 Z M0,24.4117647 L16.6,41.0117647 L0,57.6117647 L0,55.2285964 L14.2168317,41.0117647 L0,26.794933 L0,24.4117647 Z M24.4117647,83 L41.0117647,66.4 L57.6117647,83 L55.2285964,83 L41.0117647,68.7831683 L26.794933,83 L24.4117647,83 Z M0,68.7831683 L0,66.4 L16.6,83 L14.2168317,83 L0,68.7831683 Z M140.611765,-5.68434189e-14 L124.011765,16.6 L107.411765,-5.68434189e-14 L109.794933,-5.68434189e-14 L124.011765,14.2168317 L138.228596,-5.68434189e-14 L140.611765,-5.68434189e-14 Z M107.411765,83 L124.011765,66.4 L140.611765,83 L138.228596,83 L124.011765,68.7831683 L109.794933,83 L107.411765,83 Z M222.611765,-5.68434189e-14 L206.011765,16.6 L189.411765,-5.68434189e-14 L191.794933,-5.68434189e-14 L206.011765,14.2168317 L220.228596,-5.68434189e-14 L222.611765,-5.68434189e-14 Z M189.411765,83 L206.011765,66.4 L222.611765,83 L220.228596,83 L206.011765,68.7831683 L191.794933,83 L189.411765,83 Z" id="Combined-Shape"></path>
                </g>
                <g id="Group-3-Copy" opacity="0.747991071" transform="translate(329.000000, 0.000000)">
                    <path d="M165,67.4 L165,66.4 L165.5,66.9 L166,66.4 L166,67.4 L181.6,83 L179.216832,83 L165.5,69.2831683 L151.783168,83 L149.4,83 L165,67.4 Z M248,68.7831683 L233.783168,83 L231.4,83 L248,66.4 L264.4,83 L262.045545,83 L248,68.7831683 Z M165.5,57.1117647 L165,57.6117647 L165,56.6117647 L149.4,41.0117647 L165,25.4117647 L165,24.4117647 L165.5,24.9117647 L166,24.4117647 L166,25.4117647 L181.6,41.0117647 L166,56.6117647 L166,57.6117647 L165.5,57.1117647 Z M165.5,27.294933 L151.783168,41.0117647 L165.5,54.7285964 L179.216832,41.0117647 L165.5,27.294933 Z M248,57.6117647 L231.4,41.0117647 L248,24.4117647 L264.4,41.0117647 L248,57.6117647 Z M248,55.2285964 L262.045545,41.0117647 L248,26.794933 L233.783168,41.0117647 L248,55.2285964 Z M166,15.6 L166,16.6 L165.5,16.1 L165,16.6 L165,15.6 L149.4,-5.68434189e-14 L151.783168,-5.68434189e-14 L165.5,13.7168317 L179.216832,-5.68434189e-14 L181.6,-5.68434189e-14 L166,15.6 Z M248,16.6 L231.4,-5.68434189e-14 L233.783168,-5.68434189e-14 L248,14.2168317 L262.045545,-5.68434189e-14 L264.4,-5.68434189e-14 L248,16.6 Z M83,66.4 L99.6,83 L97.2168317,83 L83,68.7831683 L68.7831683,83 L66.4,83 L83,66.4 Z M83,24.4117647 L99.6,41.0117647 L83,57.6117647 L66.4,41.0117647 L83,24.4117647 Z M83,26.794933 L68.7831683,41.0117647 L83,55.2285964 L97.2168317,41.0117647 L83,26.794933 Z M83,14.2168317 L97.2168317,-5.68434189e-14 L99.6,-5.68434189e-14 L83,16.6 L66.4,-5.68434189e-14 L68.7831683,-5.68434189e-14 L83,14.2168317 Z M304.917647,-5.68434189e-14 L288.517647,16.6 L272.117647,-5.68434189e-14 L274.472103,-5.68434189e-14 L288.517647,14.2168317 L302.563192,-5.68434189e-14 L304.917647,-5.68434189e-14 Z M330,14.2168317 L330,16.6 L313.6,-5.68434189e-14 L315.954455,-5.68434189e-14 L330,14.2168317 Z M330,57.6117647 L313.6,41.0117647 L330,24.4117647 L330,26.794933 L315.954455,41.0117647 L330,55.2285964 L330,57.6117647 Z M272.117647,83 L288.517647,66.4 L304.917647,83 L302.563192,83 L288.517647,68.7831683 L274.472103,83 L272.117647,83 Z M315.954455,83 L313.6,83 L330,66.4 L330,68.7831683 L315.954455,83 Z M57.6117647,-5.68434189e-14 L41.0117647,16.6 L24.4117647,-5.68434189e-14 L26.794933,-5.68434189e-14 L41.0117647,14.2168317 L55.2285964,-5.68434189e-14 L57.6117647,-5.68434189e-14 Z M14.2168317,-5.68434189e-14 L16.6,-5.68434189e-14 L0,16.6 L0,14.2168317 L14.2168317,-5.68434189e-14 Z M0,24.4117647 L16.6,41.0117647 L0,57.6117647 L0,55.2285964 L14.2168317,41.0117647 L0,26.794933 L0,24.4117647 Z M24.4117647,83 L41.0117647,66.4 L57.6117647,83 L55.2285964,83 L41.0117647,68.7831683 L26.794933,83 L24.4117647,83 Z M0,68.7831683 L0,66.4 L16.6,83 L14.2168317,83 L0,68.7831683 Z M140.611765,-5.68434189e-14 L124.011765,16.6 L107.411765,-5.68434189e-14 L109.794933,-5.68434189e-14 L124.011765,14.2168317 L138.228596,-5.68434189e-14 L140.611765,-5.68434189e-14 Z M107.411765,83 L124.011765,66.4 L140.611765,83 L138.228596,83 L124.011765,68.7831683 L109.794933,83 L107.411765,83 Z M222.611765,-5.68434189e-14 L206.011765,16.6 L189.411765,-5.68434189e-14 L191.794933,-5.68434189e-14 L206.011765,14.2168317 L220.228596,-5.68434189e-14 L222.611765,-5.68434189e-14 Z M189.411765,83 L206.011765,66.4 L222.611765,83 L220.228596,83 L206.011765,68.7831683 L191.794933,83 L189.411765,83 Z" id="Combined-Shape"></path>
                </g>
                <g id="Group-3-Copy-3" opacity="0.747991071" transform="translate(659.000000, 0.000000)">
                    <path d="M165,67.4 L165,66.4 L165.5,66.9 L166,66.4 L166,67.4 L181.6,83 L179.216832,83 L165.5,69.2831683 L151.783168,83 L149.4,83 L165,67.4 Z M248,68.7831683 L233.783168,83 L231.4,83 L248,66.4 L264.4,83 L262.045545,83 L248,68.7831683 Z M165.5,57.1117647 L165,57.6117647 L165,56.6117647 L149.4,41.0117647 L165,25.4117647 L165,24.4117647 L165.5,24.9117647 L166,24.4117647 L166,25.4117647 L181.6,41.0117647 L166,56.6117647 L166,57.6117647 L165.5,57.1117647 Z M165.5,27.294933 L151.783168,41.0117647 L165.5,54.7285964 L179.216832,41.0117647 L165.5,27.294933 Z M248,57.6117647 L231.4,41.0117647 L248,24.4117647 L264.4,41.0117647 L248,57.6117647 Z M248,55.2285964 L262.045545,41.0117647 L248,26.794933 L233.783168,41.0117647 L248,55.2285964 Z M166,15.6 L166,16.6 L165.5,16.1 L165,16.6 L165,15.6 L149.4,-5.68434189e-14 L151.783168,-5.68434189e-14 L165.5,13.7168317 L179.216832,-5.68434189e-14 L181.6,-5.68434189e-14 L166,15.6 Z M248,16.6 L231.4,-5.68434189e-14 L233.783168,-5.68434189e-14 L248,14.2168317 L262.045545,-5.68434189e-14 L264.4,-5.68434189e-14 L248,16.6 Z M83,66.4 L99.6,83 L97.2168317,83 L83,68.7831683 L68.7831683,83 L66.4,83 L83,66.4 Z M83,24.4117647 L99.6,41.0117647 L83,57.6117647 L66.4,41.0117647 L83,24.4117647 Z M83,26.794933 L68.7831683,41.0117647 L83,55.2285964 L97.2168317,41.0117647 L83,26.794933 Z M83,14.2168317 L97.2168317,-5.68434189e-14 L99.6,-5.68434189e-14 L83,16.6 L66.4,-5.68434189e-14 L68.7831683,-5.68434189e-14 L83,14.2168317 Z M304.917647,-5.68434189e-14 L288.517647,16.6 L272.117647,-5.68434189e-14 L274.472103,-5.68434189e-14 L288.517647,14.2168317 L302.563192,-5.68434189e-14 L304.917647,-5.68434189e-14 Z M330,14.2168317 L330,16.6 L313.6,-5.68434189e-14 L315.954455,-5.68434189e-14 L330,14.2168317 Z M330,57.6117647 L313.6,41.0117647 L330,24.4117647 L330,26.794933 L315.954455,41.0117647 L330,55.2285964 L330,57.6117647 Z M272.117647,83 L288.517647,66.4 L304.917647,83 L302.563192,83 L288.517647,68.7831683 L274.472103,83 L272.117647,83 Z M315.954455,83 L313.6,83 L330,66.4 L330,68.7831683 L315.954455,83 Z M57.6117647,-5.68434189e-14 L41.0117647,16.6 L24.4117647,-5.68434189e-14 L26.794933,-5.68434189e-14 L41.0117647,14.2168317 L55.2285964,-5.68434189e-14 L57.6117647,-5.68434189e-14 Z M14.2168317,-5.68434189e-14 L16.6,-5.68434189e-14 L0,16.6 L0,14.2168317 L14.2168317,-5.68434189e-14 Z M0,24.4117647 L16.6,41.0117647 L0,57.6117647 L0,55.2285964 L14.2168317,41.0117647 L0,26.794933 L0,24.4117647 Z M24.4117647,83 L41.0117647,66.4 L57.6117647,83 L55.2285964,83 L41.0117647,68.7831683 L26.794933,83 L24.4117647,83 Z M0,68.7831683 L0,66.4 L16.6,83 L14.2168317,83 L0,68.7831683 Z M140.611765,-5.68434189e-14 L124.011765,16.6 L107.411765,-5.68434189e-14 L109.794933,-5.68434189e-14 L124.011765,14.2168317 L138.228596,-5.68434189e-14 L140.611765,-5.68434189e-14 Z M107.411765,83 L124.011765,66.4 L140.611765,83 L138.228596,83 L124.011765,68.7831683 L109.794933,83 L107.411765,83 Z M222.611765,-5.68434189e-14 L206.011765,16.6 L189.411765,-5.68434189e-14 L191.794933,-5.68434189e-14 L206.011765,14.2168317 L220.228596,-5.68434189e-14 L222.611765,-5.68434189e-14 Z M189.411765,83 L206.011765,66.4 L222.611765,83 L220.228596,83 L206.011765,68.7831683 L191.794933,83 L189.411765,83 Z" id="Combined-Shape"></path>
                </g>
                <g id="Group-3-Copy-2" opacity="0.747991071" transform="translate(988.000000, 0.000000)">
                    <path d="M165,67.4 L165,66.4 L165.5,66.9 L166,66.4 L166,67.4 L181.6,83 L179.216832,83 L165.5,69.2831683 L151.783168,83 L149.4,83 L165,67.4 Z M248,68.7831683 L233.783168,83 L231.4,83 L248,66.4 L264.4,83 L262.045545,83 L248,68.7831683 Z M165.5,57.1117647 L165,57.6117647 L165,56.6117647 L149.4,41.0117647 L165,25.4117647 L165,24.4117647 L165.5,24.9117647 L166,24.4117647 L166,25.4117647 L181.6,41.0117647 L166,56.6117647 L166,57.6117647 L165.5,57.1117647 Z M165.5,27.294933 L151.783168,41.0117647 L165.5,54.7285964 L179.216832,41.0117647 L165.5,27.294933 Z M248,57.6117647 L231.4,41.0117647 L248,24.4117647 L264.4,41.0117647 L248,57.6117647 Z M248,55.2285964 L262.045545,41.0117647 L248,26.794933 L233.783168,41.0117647 L248,55.2285964 Z M166,15.6 L166,16.6 L165.5,16.1 L165,16.6 L165,15.6 L149.4,-5.68434189e-14 L151.783168,-5.68434189e-14 L165.5,13.7168317 L179.216832,-5.68434189e-14 L181.6,-5.68434189e-14 L166,15.6 Z M248,16.6 L231.4,-5.68434189e-14 L233.783168,-5.68434189e-14 L248,14.2168317 L262.045545,-5.68434189e-14 L264.4,-5.68434189e-14 L248,16.6 Z M83,66.4 L99.6,83 L97.2168317,83 L83,68.7831683 L68.7831683,83 L66.4,83 L83,66.4 Z M83,24.4117647 L99.6,41.0117647 L83,57.6117647 L66.4,41.0117647 L83,24.4117647 Z M83,26.794933 L68.7831683,41.0117647 L83,55.2285964 L97.2168317,41.0117647 L83,26.794933 Z M83,14.2168317 L97.2168317,-5.68434189e-14 L99.6,-5.68434189e-14 L83,16.6 L66.4,-5.68434189e-14 L68.7831683,-5.68434189e-14 L83,14.2168317 Z M304.917647,-5.68434189e-14 L288.517647,16.6 L272.117647,-5.68434189e-14 L274.472103,-5.68434189e-14 L288.517647,14.2168317 L302.563192,-5.68434189e-14 L304.917647,-5.68434189e-14 Z M330,14.2168317 L330,16.6 L313.6,-5.68434189e-14 L315.954455,-5.68434189e-14 L330,14.2168317 Z M330,57.6117647 L313.6,41.0117647 L330,24.4117647 L330,26.794933 L315.954455,41.0117647 L330,55.2285964 L330,57.6117647 Z M272.117647,83 L288.517647,66.4 L304.917647,83 L302.563192,83 L288.517647,68.7831683 L274.472103,83 L272.117647,83 Z M315.954455,83 L313.6,83 L330,66.4 L330,68.7831683 L315.954455,83 Z M57.6117647,-5.68434189e-14 L41.0117647,16.6 L24.4117647,-5.68434189e-14 L26.794933,-5.68434189e-14 L41.0117647,14.2168317 L55.2285964,-5.68434189e-14 L57.6117647,-5.68434189e-14 Z M14.2168317,-5.68434189e-14 L16.6,-5.68434189e-14 L0,16.6 L0,14.2168317 L14.2168317,-5.68434189e-14 Z M0,24.4117647 L16.6,41.0117647 L0,57.6117647 L0,55.2285964 L14.2168317,41.0117647 L0,26.794933 L0,24.4117647 Z M24.4117647,83 L41.0117647,66.4 L57.6117647,83 L55.2285964,83 L41.0117647,68.7831683 L26.794933,83 L24.4117647,83 Z M0,68.7831683 L0,66.4 L16.6,83 L14.2168317,83 L0,68.7831683 Z M140.611765,-5.68434189e-14 L124.011765,16.6 L107.411765,-5.68434189e-14 L109.794933,-5.68434189e-14 L124.011765,14.2168317 L138.228596,-5.68434189e-14 L140.611765,-5.68434189e-14 Z M107.411765,83 L124.011765,66.4 L140.611765,83 L138.228596,83 L124.011765,68.7831683 L109.794933,83 L107.411765,83 Z M222.611765,-5.68434189e-14 L206.011765,16.6 L189.411765,-5.68434189e-14 L191.794933,-5.68434189e-14 L206.011765,14.2168317 L220.228596,-5.68434189e-14 L222.611765,-5.68434189e-14 Z M189.411765,83 L206.011765,66.4 L222.611765,83 L220.228596,83 L206.011765,68.7831683 L191.794933,83 L189.411765,83 Z" id="Combined-Shape"></path>
                </g>
                <g id="Group-3-Copy-4" opacity="0.747991071" transform="translate(1327.000000, 0.000000)">
                    <path d="M165,67.4 L165,66.4 L165.5,66.9 L166,66.4 L166,67.4 L181.6,83 L179.216832,83 L165.5,69.2831683 L151.783168,83 L149.4,83 L165,67.4 Z M248,68.7831683 L233.783168,83 L231.4,83 L248,66.4 L264.4,83 L262.045545,83 L248,68.7831683 Z M165.5,57.1117647 L165,57.6117647 L165,56.6117647 L149.4,41.0117647 L165,25.4117647 L165,24.4117647 L165.5,24.9117647 L166,24.4117647 L166,25.4117647 L181.6,41.0117647 L166,56.6117647 L166,57.6117647 L165.5,57.1117647 Z M165.5,27.294933 L151.783168,41.0117647 L165.5,54.7285964 L179.216832,41.0117647 L165.5,27.294933 Z M248,57.6117647 L231.4,41.0117647 L248,24.4117647 L264.4,41.0117647 L248,57.6117647 Z M248,55.2285964 L262.045545,41.0117647 L248,26.794933 L233.783168,41.0117647 L248,55.2285964 Z M166,15.6 L166,16.6 L165.5,16.1 L165,16.6 L165,15.6 L149.4,-5.68434189e-14 L151.783168,-5.68434189e-14 L165.5,13.7168317 L179.216832,-5.68434189e-14 L181.6,-5.68434189e-14 L166,15.6 Z M248,16.6 L231.4,-5.68434189e-14 L233.783168,-5.68434189e-14 L248,14.2168317 L262.045545,-5.68434189e-14 L264.4,-5.68434189e-14 L248,16.6 Z M83,66.4 L99.6,83 L97.2168317,83 L83,68.7831683 L68.7831683,83 L66.4,83 L83,66.4 Z M83,24.4117647 L99.6,41.0117647 L83,57.6117647 L66.4,41.0117647 L83,24.4117647 Z M83,26.794933 L68.7831683,41.0117647 L83,55.2285964 L97.2168317,41.0117647 L83,26.794933 Z M83,14.2168317 L97.2168317,-5.68434189e-14 L99.6,-5.68434189e-14 L83,16.6 L66.4,-5.68434189e-14 L68.7831683,-5.68434189e-14 L83,14.2168317 Z M304.917647,-5.68434189e-14 L288.517647,16.6 L272.117647,-5.68434189e-14 L274.472103,-5.68434189e-14 L288.517647,14.2168317 L302.563192,-5.68434189e-14 L304.917647,-5.68434189e-14 Z M330,14.2168317 L330,16.6 L313.6,-5.68434189e-14 L315.954455,-5.68434189e-14 L330,14.2168317 Z M330,57.6117647 L313.6,41.0117647 L330,24.4117647 L330,26.794933 L315.954455,41.0117647 L330,55.2285964 L330,57.6117647 Z M272.117647,83 L288.517647,66.4 L304.917647,83 L302.563192,83 L288.517647,68.7831683 L274.472103,83 L272.117647,83 Z M315.954455,83 L313.6,83 L330,66.4 L330,68.7831683 L315.954455,83 Z M57.6117647,-5.68434189e-14 L41.0117647,16.6 L24.4117647,-5.68434189e-14 L26.794933,-5.68434189e-14 L41.0117647,14.2168317 L55.2285964,-5.68434189e-14 L57.6117647,-5.68434189e-14 Z M14.2168317,-5.68434189e-14 L16.6,-5.68434189e-14 L0,16.6 L0,14.2168317 L14.2168317,-5.68434189e-14 Z M0,24.4117647 L16.6,41.0117647 L0,57.6117647 L0,55.2285964 L14.2168317,41.0117647 L0,26.794933 L0,24.4117647 Z M24.4117647,83 L41.0117647,66.4 L57.6117647,83 L55.2285964,83 L41.0117647,68.7831683 L26.794933,83 L24.4117647,83 Z M0,68.7831683 L0,66.4 L16.6,83 L14.2168317,83 L0,68.7831683 Z M140.611765,-5.68434189e-14 L124.011765,16.6 L107.411765,-5.68434189e-14 L109.794933,-5.68434189e-14 L124.011765,14.2168317 L138.228596,-5.68434189e-14 L140.611765,-5.68434189e-14 Z M107.411765,83 L124.011765,66.4 L140.611765,83 L138.228596,83 L124.011765,68.7831683 L109.794933,83 L107.411765,83 Z M222.611765,-5.68434189e-14 L206.011765,16.6 L189.411765,-5.68434189e-14 L191.794933,-5.68434189e-14 L206.011765,14.2168317 L220.228596,-5.68434189e-14 L222.611765,-5.68434189e-14 Z M189.411765,83 L206.011765,66.4 L222.611765,83 L220.228596,83 L206.011765,68.7831683 L191.794933,83 L189.411765,83 Z" id="Combined-Shape"></path>
                </g>
                <g id="Group-3-Copy-9" opacity="0.388392857" transform="translate(0.000000, 84.000000)">
                    <path d="M165,67.4 L165,66.4 L165.5,66.9 L166,66.4 L166,67.4 L181.6,83 L179.216832,83 L165.5,69.2831683 L151.783168,83 L149.4,83 L165,67.4 Z M248,68.7831683 L233.783168,83 L231.4,83 L248,66.4 L264.4,83 L262.045545,83 L248,68.7831683 Z M165.5,57.1117647 L165,57.6117647 L165,56.6117647 L149.4,41.0117647 L165,25.4117647 L165,24.4117647 L165.5,24.9117647 L166,24.4117647 L166,25.4117647 L181.6,41.0117647 L166,56.6117647 L166,57.6117647 L165.5,57.1117647 Z M165.5,27.294933 L151.783168,41.0117647 L165.5,54.7285964 L179.216832,41.0117647 L165.5,27.294933 Z M248,57.6117647 L231.4,41.0117647 L248,24.4117647 L264.4,41.0117647 L248,57.6117647 Z M248,55.2285964 L262.045545,41.0117647 L248,26.794933 L233.783168,41.0117647 L248,55.2285964 Z M166,15.6 L166,16.6 L165.5,16.1 L165,16.6 L165,15.6 L149.4,-5.68434189e-14 L151.783168,-5.68434189e-14 L165.5,13.7168317 L179.216832,-5.68434189e-14 L181.6,-5.68434189e-14 L166,15.6 Z M248,16.6 L231.4,-5.68434189e-14 L233.783168,-5.68434189e-14 L248,14.2168317 L262.045545,-5.68434189e-14 L264.4,-5.68434189e-14 L248,16.6 Z M83,66.4 L99.6,83 L97.2168317,83 L83,68.7831683 L68.7831683,83 L66.4,83 L83,66.4 Z M83,24.4117647 L99.6,41.0117647 L83,57.6117647 L66.4,41.0117647 L83,24.4117647 Z M83,26.794933 L68.7831683,41.0117647 L83,55.2285964 L97.2168317,41.0117647 L83,26.794933 Z M83,14.2168317 L97.2168317,-5.68434189e-14 L99.6,-5.68434189e-14 L83,16.6 L66.4,-5.68434189e-14 L68.7831683,-5.68434189e-14 L83,14.2168317 Z M304.917647,-5.68434189e-14 L288.517647,16.6 L272.117647,-5.68434189e-14 L274.472103,-5.68434189e-14 L288.517647,14.2168317 L302.563192,-5.68434189e-14 L304.917647,-5.68434189e-14 Z M330,14.2168317 L330,16.6 L313.6,-5.68434189e-14 L315.954455,-5.68434189e-14 L330,14.2168317 Z M330,57.6117647 L313.6,41.0117647 L330,24.4117647 L330,26.794933 L315.954455,41.0117647 L330,55.2285964 L330,57.6117647 Z M272.117647,83 L288.517647,66.4 L304.917647,83 L302.563192,83 L288.517647,68.7831683 L274.472103,83 L272.117647,83 Z M315.954455,83 L313.6,83 L330,66.4 L330,68.7831683 L315.954455,83 Z M57.6117647,-5.68434189e-14 L41.0117647,16.6 L24.4117647,-5.68434189e-14 L26.794933,-5.68434189e-14 L41.0117647,14.2168317 L55.2285964,-5.68434189e-14 L57.6117647,-5.68434189e-14 Z M14.2168317,-5.68434189e-14 L16.6,-5.68434189e-14 L0,16.6 L0,14.2168317 L14.2168317,-5.68434189e-14 Z M0,24.4117647 L16.6,41.0117647 L0,57.6117647 L0,55.2285964 L14.2168317,41.0117647 L0,26.794933 L0,24.4117647 Z M24.4117647,83 L41.0117647,66.4 L57.6117647,83 L55.2285964,83 L41.0117647,68.7831683 L26.794933,83 L24.4117647,83 Z M0,68.7831683 L0,66.4 L16.6,83 L14.2168317,83 L0,68.7831683 Z M140.611765,-5.68434189e-14 L124.011765,16.6 L107.411765,-5.68434189e-14 L109.794933,-5.68434189e-14 L124.011765,14.2168317 L138.228596,-5.68434189e-14 L140.611765,-5.68434189e-14 Z M107.411765,83 L124.011765,66.4 L140.611765,83 L138.228596,83 L124.011765,68.7831683 L109.794933,83 L107.411765,83 Z M222.611765,-5.68434189e-14 L206.011765,16.6 L189.411765,-5.68434189e-14 L191.794933,-5.68434189e-14 L206.011765,14.2168317 L220.228596,-5.68434189e-14 L222.611765,-5.68434189e-14 Z M189.411765,83 L206.011765,66.4 L222.611765,83 L220.228596,83 L206.011765,68.7831683 L191.794933,83 L189.411765,83 Z" id="Combined-Shape"></path>
                </g>
                <g id="Group-3-Copy-8" opacity="0.388392857" transform="translate(329.000000, 84.000000)">
                    <path d="M165,67.4 L165,66.4 L165.5,66.9 L166,66.4 L166,67.4 L181.6,83 L179.216832,83 L165.5,69.2831683 L151.783168,83 L149.4,83 L165,67.4 Z M248,68.7831683 L233.783168,83 L231.4,83 L248,66.4 L264.4,83 L262.045545,83 L248,68.7831683 Z M165.5,57.1117647 L165,57.6117647 L165,56.6117647 L149.4,41.0117647 L165,25.4117647 L165,24.4117647 L165.5,24.9117647 L166,24.4117647 L166,25.4117647 L181.6,41.0117647 L166,56.6117647 L166,57.6117647 L165.5,57.1117647 Z M165.5,27.294933 L151.783168,41.0117647 L165.5,54.7285964 L179.216832,41.0117647 L165.5,27.294933 Z M248,57.6117647 L231.4,41.0117647 L248,24.4117647 L264.4,41.0117647 L248,57.6117647 Z M248,55.2285964 L262.045545,41.0117647 L248,26.794933 L233.783168,41.0117647 L248,55.2285964 Z M166,15.6 L166,16.6 L165.5,16.1 L165,16.6 L165,15.6 L149.4,-5.68434189e-14 L151.783168,-5.68434189e-14 L165.5,13.7168317 L179.216832,-5.68434189e-14 L181.6,-5.68434189e-14 L166,15.6 Z M248,16.6 L231.4,-5.68434189e-14 L233.783168,-5.68434189e-14 L248,14.2168317 L262.045545,-5.68434189e-14 L264.4,-5.68434189e-14 L248,16.6 Z M83,66.4 L99.6,83 L97.2168317,83 L83,68.7831683 L68.7831683,83 L66.4,83 L83,66.4 Z M83,24.4117647 L99.6,41.0117647 L83,57.6117647 L66.4,41.0117647 L83,24.4117647 Z M83,26.794933 L68.7831683,41.0117647 L83,55.2285964 L97.2168317,41.0117647 L83,26.794933 Z M83,14.2168317 L97.2168317,-5.68434189e-14 L99.6,-5.68434189e-14 L83,16.6 L66.4,-5.68434189e-14 L68.7831683,-5.68434189e-14 L83,14.2168317 Z M304.917647,-5.68434189e-14 L288.517647,16.6 L272.117647,-5.68434189e-14 L274.472103,-5.68434189e-14 L288.517647,14.2168317 L302.563192,-5.68434189e-14 L304.917647,-5.68434189e-14 Z M330,14.2168317 L330,16.6 L313.6,-5.68434189e-14 L315.954455,-5.68434189e-14 L330,14.2168317 Z M330,57.6117647 L313.6,41.0117647 L330,24.4117647 L330,26.794933 L315.954455,41.0117647 L330,55.2285964 L330,57.6117647 Z M272.117647,83 L288.517647,66.4 L304.917647,83 L302.563192,83 L288.517647,68.7831683 L274.472103,83 L272.117647,83 Z M315.954455,83 L313.6,83 L330,66.4 L330,68.7831683 L315.954455,83 Z M57.6117647,-5.68434189e-14 L41.0117647,16.6 L24.4117647,-5.68434189e-14 L26.794933,-5.68434189e-14 L41.0117647,14.2168317 L55.2285964,-5.68434189e-14 L57.6117647,-5.68434189e-14 Z M14.2168317,-5.68434189e-14 L16.6,-5.68434189e-14 L0,16.6 L0,14.2168317 L14.2168317,-5.68434189e-14 Z M0,24.4117647 L16.6,41.0117647 L0,57.6117647 L0,55.2285964 L14.2168317,41.0117647 L0,26.794933 L0,24.4117647 Z M24.4117647,83 L41.0117647,66.4 L57.6117647,83 L55.2285964,83 L41.0117647,68.7831683 L26.794933,83 L24.4117647,83 Z M0,68.7831683 L0,66.4 L16.6,83 L14.2168317,83 L0,68.7831683 Z M140.611765,-5.68434189e-14 L124.011765,16.6 L107.411765,-5.68434189e-14 L109.794933,-5.68434189e-14 L124.011765,14.2168317 L138.228596,-5.68434189e-14 L140.611765,-5.68434189e-14 Z M107.411765,83 L124.011765,66.4 L140.611765,83 L138.228596,83 L124.011765,68.7831683 L109.794933,83 L107.411765,83 Z M222.611765,-5.68434189e-14 L206.011765,16.6 L189.411765,-5.68434189e-14 L191.794933,-5.68434189e-14 L206.011765,14.2168317 L220.228596,-5.68434189e-14 L222.611765,-5.68434189e-14 Z M189.411765,83 L206.011765,66.4 L222.611765,83 L220.228596,83 L206.011765,68.7831683 L191.794933,83 L189.411765,83 Z" id="Combined-Shape"></path>
                </g>
                <g id="Group-3-Copy-7" opacity="0.388392857" transform="translate(659.000000, 84.000000)">
                    <path d="M165,67.4 L165,66.4 L165.5,66.9 L166,66.4 L166,67.4 L181.6,83 L179.216832,83 L165.5,69.2831683 L151.783168,83 L149.4,83 L165,67.4 Z M248,68.7831683 L233.783168,83 L231.4,83 L248,66.4 L264.4,83 L262.045545,83 L248,68.7831683 Z M165.5,57.1117647 L165,57.6117647 L165,56.6117647 L149.4,41.0117647 L165,25.4117647 L165,24.4117647 L165.5,24.9117647 L166,24.4117647 L166,25.4117647 L181.6,41.0117647 L166,56.6117647 L166,57.6117647 L165.5,57.1117647 Z M165.5,27.294933 L151.783168,41.0117647 L165.5,54.7285964 L179.216832,41.0117647 L165.5,27.294933 Z M248,57.6117647 L231.4,41.0117647 L248,24.4117647 L264.4,41.0117647 L248,57.6117647 Z M248,55.2285964 L262.045545,41.0117647 L248,26.794933 L233.783168,41.0117647 L248,55.2285964 Z M166,15.6 L166,16.6 L165.5,16.1 L165,16.6 L165,15.6 L149.4,-5.68434189e-14 L151.783168,-5.68434189e-14 L165.5,13.7168317 L179.216832,-5.68434189e-14 L181.6,-5.68434189e-14 L166,15.6 Z M248,16.6 L231.4,-5.68434189e-14 L233.783168,-5.68434189e-14 L248,14.2168317 L262.045545,-5.68434189e-14 L264.4,-5.68434189e-14 L248,16.6 Z M83,66.4 L99.6,83 L97.2168317,83 L83,68.7831683 L68.7831683,83 L66.4,83 L83,66.4 Z M83,24.4117647 L99.6,41.0117647 L83,57.6117647 L66.4,41.0117647 L83,24.4117647 Z M83,26.794933 L68.7831683,41.0117647 L83,55.2285964 L97.2168317,41.0117647 L83,26.794933 Z M83,14.2168317 L97.2168317,-5.68434189e-14 L99.6,-5.68434189e-14 L83,16.6 L66.4,-5.68434189e-14 L68.7831683,-5.68434189e-14 L83,14.2168317 Z M304.917647,-5.68434189e-14 L288.517647,16.6 L272.117647,-5.68434189e-14 L274.472103,-5.68434189e-14 L288.517647,14.2168317 L302.563192,-5.68434189e-14 L304.917647,-5.68434189e-14 Z M330,14.2168317 L330,16.6 L313.6,-5.68434189e-14 L315.954455,-5.68434189e-14 L330,14.2168317 Z M330,57.6117647 L313.6,41.0117647 L330,24.4117647 L330,26.794933 L315.954455,41.0117647 L330,55.2285964 L330,57.6117647 Z M272.117647,83 L288.517647,66.4 L304.917647,83 L302.563192,83 L288.517647,68.7831683 L274.472103,83 L272.117647,83 Z M315.954455,83 L313.6,83 L330,66.4 L330,68.7831683 L315.954455,83 Z M57.6117647,-5.68434189e-14 L41.0117647,16.6 L24.4117647,-5.68434189e-14 L26.794933,-5.68434189e-14 L41.0117647,14.2168317 L55.2285964,-5.68434189e-14 L57.6117647,-5.68434189e-14 Z M14.2168317,-5.68434189e-14 L16.6,-5.68434189e-14 L0,16.6 L0,14.2168317 L14.2168317,-5.68434189e-14 Z M0,24.4117647 L16.6,41.0117647 L0,57.6117647 L0,55.2285964 L14.2168317,41.0117647 L0,26.794933 L0,24.4117647 Z M24.4117647,83 L41.0117647,66.4 L57.6117647,83 L55.2285964,83 L41.0117647,68.7831683 L26.794933,83 L24.4117647,83 Z M0,68.7831683 L0,66.4 L16.6,83 L14.2168317,83 L0,68.7831683 Z M140.611765,-5.68434189e-14 L124.011765,16.6 L107.411765,-5.68434189e-14 L109.794933,-5.68434189e-14 L124.011765,14.2168317 L138.228596,-5.68434189e-14 L140.611765,-5.68434189e-14 Z M107.411765,83 L124.011765,66.4 L140.611765,83 L138.228596,83 L124.011765,68.7831683 L109.794933,83 L107.411765,83 Z M222.611765,-5.68434189e-14 L206.011765,16.6 L189.411765,-5.68434189e-14 L191.794933,-5.68434189e-14 L206.011765,14.2168317 L220.228596,-5.68434189e-14 L222.611765,-5.68434189e-14 Z M189.411765,83 L206.011765,66.4 L222.611765,83 L220.228596,83 L206.011765,68.7831683 L191.794933,83 L189.411765,83 Z" id="Combined-Shape"></path>
                </g>
                <g id="Group-3-Copy-6" opacity="0.388392857" transform="translate(988.000000, 84.000000)">
                    <path d="M165,67.4 L165,66.4 L165.5,66.9 L166,66.4 L166,67.4 L181.6,83 L179.216832,83 L165.5,69.2831683 L151.783168,83 L149.4,83 L165,67.4 Z M248,68.7831683 L233.783168,83 L231.4,83 L248,66.4 L264.4,83 L262.045545,83 L248,68.7831683 Z M165.5,57.1117647 L165,57.6117647 L165,56.6117647 L149.4,41.0117647 L165,25.4117647 L165,24.4117647 L165.5,24.9117647 L166,24.4117647 L166,25.4117647 L181.6,41.0117647 L166,56.6117647 L166,57.6117647 L165.5,57.1117647 Z M165.5,27.294933 L151.783168,41.0117647 L165.5,54.7285964 L179.216832,41.0117647 L165.5,27.294933 Z M248,57.6117647 L231.4,41.0117647 L248,24.4117647 L264.4,41.0117647 L248,57.6117647 Z M248,55.2285964 L262.045545,41.0117647 L248,26.794933 L233.783168,41.0117647 L248,55.2285964 Z M166,15.6 L166,16.6 L165.5,16.1 L165,16.6 L165,15.6 L149.4,-5.68434189e-14 L151.783168,-5.68434189e-14 L165.5,13.7168317 L179.216832,-5.68434189e-14 L181.6,-5.68434189e-14 L166,15.6 Z M248,16.6 L231.4,-5.68434189e-14 L233.783168,-5.68434189e-14 L248,14.2168317 L262.045545,-5.68434189e-14 L264.4,-5.68434189e-14 L248,16.6 Z M83,66.4 L99.6,83 L97.2168317,83 L83,68.7831683 L68.7831683,83 L66.4,83 L83,66.4 Z M83,24.4117647 L99.6,41.0117647 L83,57.6117647 L66.4,41.0117647 L83,24.4117647 Z M83,26.794933 L68.7831683,41.0117647 L83,55.2285964 L97.2168317,41.0117647 L83,26.794933 Z M83,14.2168317 L97.2168317,-5.68434189e-14 L99.6,-5.68434189e-14 L83,16.6 L66.4,-5.68434189e-14 L68.7831683,-5.68434189e-14 L83,14.2168317 Z M304.917647,-5.68434189e-14 L288.517647,16.6 L272.117647,-5.68434189e-14 L274.472103,-5.68434189e-14 L288.517647,14.2168317 L302.563192,-5.68434189e-14 L304.917647,-5.68434189e-14 Z M330,14.2168317 L330,16.6 L313.6,-5.68434189e-14 L315.954455,-5.68434189e-14 L330,14.2168317 Z M330,57.6117647 L313.6,41.0117647 L330,24.4117647 L330,26.794933 L315.954455,41.0117647 L330,55.2285964 L330,57.6117647 Z M272.117647,83 L288.517647,66.4 L304.917647,83 L302.563192,83 L288.517647,68.7831683 L274.472103,83 L272.117647,83 Z M315.954455,83 L313.6,83 L330,66.4 L330,68.7831683 L315.954455,83 Z M57.6117647,-5.68434189e-14 L41.0117647,16.6 L24.4117647,-5.68434189e-14 L26.794933,-5.68434189e-14 L41.0117647,14.2168317 L55.2285964,-5.68434189e-14 L57.6117647,-5.68434189e-14 Z M14.2168317,-5.68434189e-14 L16.6,-5.68434189e-14 L0,16.6 L0,14.2168317 L14.2168317,-5.68434189e-14 Z M0,24.4117647 L16.6,41.0117647 L0,57.6117647 L0,55.2285964 L14.2168317,41.0117647 L0,26.794933 L0,24.4117647 Z M24.4117647,83 L41.0117647,66.4 L57.6117647,83 L55.2285964,83 L41.0117647,68.7831683 L26.794933,83 L24.4117647,83 Z M0,68.7831683 L0,66.4 L16.6,83 L14.2168317,83 L0,68.7831683 Z M140.611765,-5.68434189e-14 L124.011765,16.6 L107.411765,-5.68434189e-14 L109.794933,-5.68434189e-14 L124.011765,14.2168317 L138.228596,-5.68434189e-14 L140.611765,-5.68434189e-14 Z M107.411765,83 L124.011765,66.4 L140.611765,83 L138.228596,83 L124.011765,68.7831683 L109.794933,83 L107.411765,83 Z M222.611765,-5.68434189e-14 L206.011765,16.6 L189.411765,-5.68434189e-14 L191.794933,-5.68434189e-14 L206.011765,14.2168317 L220.228596,-5.68434189e-14 L222.611765,-5.68434189e-14 Z M189.411765,83 L206.011765,66.4 L222.611765,83 L220.228596,83 L206.011765,68.7831683 L191.794933,83 L189.411765,83 Z" id="Combined-Shape"></path>
                </g>
                <g id="Group-3-Copy-5" opacity="0.388392857" transform="translate(1327.000000, 84.000000)">
                    <path d="M165,67.4 L165,66.4 L165.5,66.9 L166,66.4 L166,67.4 L181.6,83 L179.216832,83 L165.5,69.2831683 L151.783168,83 L149.4,83 L165,67.4 Z M248,68.7831683 L233.783168,83 L231.4,83 L248,66.4 L264.4,83 L262.045545,83 L248,68.7831683 Z M165.5,57.1117647 L165,57.6117647 L165,56.6117647 L149.4,41.0117647 L165,25.4117647 L165,24.4117647 L165.5,24.9117647 L166,24.4117647 L166,25.4117647 L181.6,41.0117647 L166,56.6117647 L166,57.6117647 L165.5,57.1117647 Z M165.5,27.294933 L151.783168,41.0117647 L165.5,54.7285964 L179.216832,41.0117647 L165.5,27.294933 Z M248,57.6117647 L231.4,41.0117647 L248,24.4117647 L264.4,41.0117647 L248,57.6117647 Z M248,55.2285964 L262.045545,41.0117647 L248,26.794933 L233.783168,41.0117647 L248,55.2285964 Z M166,15.6 L166,16.6 L165.5,16.1 L165,16.6 L165,15.6 L149.4,-5.68434189e-14 L151.783168,-5.68434189e-14 L165.5,13.7168317 L179.216832,-5.68434189e-14 L181.6,-5.68434189e-14 L166,15.6 Z M248,16.6 L231.4,-5.68434189e-14 L233.783168,-5.68434189e-14 L248,14.2168317 L262.045545,-5.68434189e-14 L264.4,-5.68434189e-14 L248,16.6 Z M83,66.4 L99.6,83 L97.2168317,83 L83,68.7831683 L68.7831683,83 L66.4,83 L83,66.4 Z M83,24.4117647 L99.6,41.0117647 L83,57.6117647 L66.4,41.0117647 L83,24.4117647 Z M83,26.794933 L68.7831683,41.0117647 L83,55.2285964 L97.2168317,41.0117647 L83,26.794933 Z M83,14.2168317 L97.2168317,-5.68434189e-14 L99.6,-5.68434189e-14 L83,16.6 L66.4,-5.68434189e-14 L68.7831683,-5.68434189e-14 L83,14.2168317 Z M304.917647,-5.68434189e-14 L288.517647,16.6 L272.117647,-5.68434189e-14 L274.472103,-5.68434189e-14 L288.517647,14.2168317 L302.563192,-5.68434189e-14 L304.917647,-5.68434189e-14 Z M330,14.2168317 L330,16.6 L313.6,-5.68434189e-14 L315.954455,-5.68434189e-14 L330,14.2168317 Z M330,57.6117647 L313.6,41.0117647 L330,24.4117647 L330,26.794933 L315.954455,41.0117647 L330,55.2285964 L330,57.6117647 Z M272.117647,83 L288.517647,66.4 L304.917647,83 L302.563192,83 L288.517647,68.7831683 L274.472103,83 L272.117647,83 Z M315.954455,83 L313.6,83 L330,66.4 L330,68.7831683 L315.954455,83 Z M57.6117647,-5.68434189e-14 L41.0117647,16.6 L24.4117647,-5.68434189e-14 L26.794933,-5.68434189e-14 L41.0117647,14.2168317 L55.2285964,-5.68434189e-14 L57.6117647,-5.68434189e-14 Z M14.2168317,-5.68434189e-14 L16.6,-5.68434189e-14 L0,16.6 L0,14.2168317 L14.2168317,-5.68434189e-14 Z M0,24.4117647 L16.6,41.0117647 L0,57.6117647 L0,55.2285964 L14.2168317,41.0117647 L0,26.794933 L0,24.4117647 Z M24.4117647,83 L41.0117647,66.4 L57.6117647,83 L55.2285964,83 L41.0117647,68.7831683 L26.794933,83 L24.4117647,83 Z M0,68.7831683 L0,66.4 L16.6,83 L14.2168317,83 L0,68.7831683 Z M140.611765,-5.68434189e-14 L124.011765,16.6 L107.411765,-5.68434189e-14 L109.794933,-5.68434189e-14 L124.011765,14.2168317 L138.228596,-5.68434189e-14 L140.611765,-5.68434189e-14 Z M107.411765,83 L124.011765,66.4 L140.611765,83 L138.228596,83 L124.011765,68.7831683 L109.794933,83 L107.411765,83 Z M222.611765,-5.68434189e-14 L206.011765,16.6 L189.411765,-5.68434189e-14 L191.794933,-5.68434189e-14 L206.011765,14.2168317 L220.228596,-5.68434189e-14 L222.611765,-5.68434189e-14 Z M189.411765,83 L206.011765,66.4 L222.611765,83 L220.228596,83 L206.011765,68.7831683 L191.794933,83 L189.411765,83 Z" id="Combined-Shape"></path>
                </g>
            </g>
        </g>
    </g>
</svg>