<svg xmlns="http://www.w3.org/2000/svg" width="91" height="91" viewBox="0 0 91 91">
    <defs>
        <linearGradient id="a" x1="100%" x2="0%" y1="100%" y2="0%">
            <stop offset="0%" stop-color="#5172C1"/>
            <stop offset="100%" stop-color="#64D1B5"/>
        </linearGradient>
    </defs>
    <g fill="none" fill-rule="nonzero" transform="translate(9 9)">
        <circle cx="36.5" cy="36.5" r="40.941" fill="#FBFBFB" stroke="#979797" stroke-opacity=".098" stroke-width="8.882"/>
        <path fill="url(#a)" d="M35.448 48.216a.552.552 0 0 1-.565-.566v-.93c0-.324.243-.565.565-.565l1.456-.002c.324 0 .566.243.566.565v.93a.552.552 0 0 1-.566.566l-1.456.002zm3.882-10.513c-.687-.606-1.658-.93-2.91-.93-1.133 0-2.063.283-2.75.809-.607.485-.97 1.132-1.01 2.021 0 .202.16.364.362.405l1.659.04c.282 0 .526-.16.606-.404.041-.202.161-.363.324-.526.243-.202.526-.323.85-.323.445 0 .767.121.97.404.243.243.363.606.363 1.052 0 .404-.08.767-.283 1.091a2.567 2.567 0 0 1-.809.809c-.687.485-1.132.889-1.374 1.254-.202.283-.324.687-.363 1.172-.041.243.161.445.404.445h1.82c.202 0 .363-.16.404-.363.041-.243.08-.485.161-.648.122-.243.324-.485.687-.687.607-.323 1.092-.728 1.456-1.293.405-.526.566-1.133.566-1.779-.08-1.094-.446-1.942-1.133-2.549zm4.287-7.36c0-.404-.202-.808-.526-1.09-1.78-1.497-3.76-2.466-4.165-2.669-.04-.04-.08-.08-.08-.121v-1.335c.202-.363.363-.767.404-1.091.161 0 .363-.243.565-1.01.283-1.012 0-1.214-.243-1.214.648-2.991-1.052-3.032-1.052-3.032-.121-.648-1.052-1.294-1.86-1.092-.807.162-2.545-.04-2.545-.04-.04.363.283.606.283.606-1.496.93-1.172 2.952-1.01 3.517-.244 0-.527.202-.244 1.213.202.768.404 1.01.565 1.01.041.364.203.729.405 1.092v1.335c0 .04-.041.08-.08.121-.405.203-2.346 1.172-4.166 2.67-.324.282-.526.687-.526 1.091v2.022h14.234v-1.983h.041zm8.247 18.721c-.04-.041-.08-.08-.08-.122v-1.334c.202-.364.363-.768.404-1.092.161 0 .363-.243.566-1.01.282-1.011 0-1.213-.244-1.213.648-2.992-1.052-3.033-1.052-3.033-.121-.647-1.051-1.293-1.86-1.091-.85.161-2.548-.041-2.548-.041-.04.363.283.606.283.606-1.496.93-1.172 2.952-1.01 3.518-.244 0-.527.202-.244 1.213.202.767.404 1.01.565 1.01.042.364.203.728.405 1.092V48.9c0 .041-.041.08-.08.122-.405.202-2.346 1.172-4.166 2.67a1.612 1.612 0 0 0-.481 1.131v2.022h14.233v-2.022c0-.404-.202-.808-.526-1.09-1.78-1.497-3.76-2.468-4.165-2.67zm-27.372 5.782h6.187v-2.021c0-.405-.202-.81-.526-1.092-1.82-1.495-3.76-2.467-4.165-2.669-.041-.041-.08-.08-.08-.122v-1.334c.201-.363.363-.768.404-1.092.16 0 .363-.243.565-1.01.283-1.011 0-1.213-.243-1.213.647-2.992-1.052-3.033-1.052-3.033-.122-.647-1.052-1.293-1.86-1.091-.85.161-2.548-.041-2.548-.041-.041.363.283.606.283.606-1.496.93-1.172 2.952-1.011 3.518-.243 0-.526.202-.243 1.213.202.767.404 1.01.565 1.01.041.364.202.729.404 1.092V48.9c0 .041-.04.08-.08.122-.405.202-2.346 1.172-4.165 2.67a1.612 1.612 0 0 0-.482 1.132v2.021h8.047z"/>
    </g>
</svg>
