<?xml version="1.0" encoding="UTF-8"?>
<svg width="95px" height="95px" viewBox="0 0 95 95" version="1.1" xmlns="http://www.w3.org/2000/svg" xmlns:xlink="http://www.w3.org/1999/xlink">
    <!-- Generator: Sketch 50.2 (55047) - http://www.bohemiancoding.com/sketch -->
    <title>Group 8</title>
    <desc>Created with Sketch.</desc>
    <defs>
        <linearGradient x1="100%" y1="100%" x2="0%" y2="0%" id="linearGradient-1">
            <stop stop-color="#5172C1" offset="0%"></stop>
            <stop stop-color="#64D1B5" offset="100%"></stop>
        </linearGradient>
    </defs>
    <g id="Page-1" stroke="none" stroke-width="1" fill="none" fill-rule="evenodd">
        <g id="About-Us-2" transform="translate(-202.000000, -3378.000000)" fill-rule="nonzero">
            <g id="Group-7" transform="translate(156.000000, 3314.000000)">
                <g id="Group-8" transform="translate(57.000000, 75.000000)">
                    <circle id="Oval-3" stroke-opacity="0.0980525362" stroke="#979797" stroke-width="11" fill="#FBFBFB" cx="36.5" cy="36.5" r="42"></circle>
                    <g id="np_career_1393666_000000" transform="translate(21.000000, 18.000000)" fill="url(#linearGradient-1)">
                        <path d="M7,15.8780634 L5.56903911,18.8808115 L4.94639579,20.1775151 C4.70665484,20.6795325 4.18262064,21 3.60636122,21 L1.10608542,21 C0.495025699,21 0,20.5257813 0,19.9404057 C0,19.3550302 0.495025699,18.8808115 1.10608542,18.8808115 L2.92956209,18.8808115 C3.07265421,18.8808115 3.20414789,18.8011569 3.26409055,18.675195 L5.02955021,15 L7,15.8780634 Z M16,1.99936184 C16,4.66687939 12,4.66687939 12,1.99936184 C12,-0.666453948 16,-0.666453948 16,1.99936184 Z M4.02657565,10.0466874 L4.02630008,10.0466397 C3.33896545,10.9623661 1.80433703,10.0027953 2.02071291,9.5165759 L3.96085294,5.22665281 C4.02267396,5.09139015 4.15723161,5.00365589 4.30633099,5 L10.2086764,5 C10.2614065,5 10.3105011,5.0127949 10.3577758,5.03472882 L13.2670548,6.42755005 C13.3016031,6.44399756 13.3343313,6.46593195 13.3634241,6.49334946 L15.3035642,8.44365481 C15.3672006,8.50762698 15.4526635,8.54418351 15.5435774,8.54418351 L16.9673087,8.54418351 C17.2509751,8.54600841 17.5237165,8.66481888 17.7182751,8.87318991 C17.9128337,9.08338117 18.0146566,9.36302164 17.998292,9.64816489 C17.9655685,10.2129533 17.4982684,10.6534579 16.9364285,10.649802 L15.1235985,10.649802 C14.7581465,10.649802 14.4072083,10.5035759 14.1508287,10.2403689 L12.8470992,8.91520945 C12.7689164,8.83478555 12.6543607,8.79822856 12.543445,8.81833523 C12.4325293,8.83844191 12.3379782,8.91338454 12.2925208,9.01574282 L12.2925208,9.01757053 L10.3887817,13.2051119 C10.3469612,13.2891931 10.3415061,13.3860673 10.3705989,13.473803 C10.4015118,13.5633636 10.4669682,13.636478 10.5506112,13.67669 L15.0436087,15.8828559 C15.423621,16.0711016 15.6654524,16.4622576 15.6636342,16.8899678 L15.6636342,23.9471907 C15.6654543,24.2250016 15.558174,24.4918631 15.3636154,24.6892707 C15.1709048,24.8866736 14.907231,24.9981723 14.6308495,25 C14.3562973,24.9981751 14.0926421,24.8866736 13.8980835,24.6892707 C13.7053449,24.4919005 13.5980666,24.2250203 13.5998847,23.9471907 L13.5998847,17.8094376 C13.5998847,17.6760045 13.5253327,17.5535442 13.4053261,17.4932242 L9.35598204,15.4899499 L7.45587369,14.5541028 C6.77584996,14.2141563 6.48855935,13.3952901 6.80312457,12.7007044 L7.12496531,11.9915195 L9.11598281,7.61203581 C9.16507468,7.50419815 9.15780381,7.37807404 9.09416275,7.27754534 C9.03052169,7.17518707 8.91960601,7.11486985 8.8014148,7.11304214 L5.57393042,7.11304214 C5.43937743,7.11304214 5.31573074,7.19346416 5.2593652,7.31592911 L5.2593652,7.31775729 L4.02657565,10.0466874 Z M26.1545562,15 L30,15 L30,37 L5,37 L5,34.1302751 L11.7318343,34.1302751 L11.7318343,27.4348625 L18.4618225,27.4348625 L18.4618225,21.6954126 L26.1545562,21.6954126 L26.1545562,15 Z" id="Combined-Shape"></path>
                    </g>
                </g>
            </g>
        </g>
    </g>
</svg>