<svg xmlns="http://www.w3.org/2000/svg" width="98" height="103" viewBox="0 0 98 103">
    <path fill="#303864" fill-rule="nonzero" d="M56.458 97.8l-.757 2.708c-.43 1.409-1.732 2.492-3.244 2.492H45.21c-1.513 0-2.92-1.083-3.245-2.492L41.21 97.8c-2.273-.325-4.111-2.276-4.111-4.657v-3.034c0-1.514 1.297-2.923 2.92-2.923h17.63c1.513.11 2.814 1.409 2.814 2.923v3.034c.106 2.386-1.732 4.442-4.005 4.657zm-7.462-82.096c1.513 0 2.814-1.298 2.814-2.817V2.817C51.81 1.304 50.513 0 48.996 0c-1.512 0-2.814 1.303-2.814 2.818v9.963c0 1.624 1.302 2.923 2.814 2.923zm-33.419 33.36c0-1.515-1.297-2.818-2.813-2.818l-9.95.004C1.3 46.25 0 47.549 0 49.068c0 1.514 1.297 2.817 2.814 2.817h9.95c1.512-.004 2.813-1.197 2.813-2.822zM95.18 46.25h-9.95c-1.512 0-2.813 1.299-2.813 2.818 0 1.514 1.297 2.817 2.813 2.817h9.95c1.513 0 2.814-1.299 2.814-2.817.106-1.52-1.192-2.818-2.814-2.818zM18.172 83.937l7.03-7.04c1.192-1.193 1.192-2.923 0-4.117-1.081-1.083-2.813-1.083-4 0l-7.03 7.04c-1.192 1.193-1.192 2.924 0 4.117.54.541 1.296.867 1.947.867a3.93 3.93 0 0 0 2.053-.867zM83.72 14.3c-1.192-1.193-2.92-1.193-4.111 0l-7.03 7.04c-1.192 1.193-1.192 2.923 0 4.116.65.542 1.406.867 2.053.867.756 0 1.407-.325 1.947-.867l7.03-7.04c1.298-1.193 1.298-2.927.11-4.116zM14.17 18.412l7.14 7.04c.541.541 1.298.867 1.948.867.651 0 1.407-.326 1.948-.867 1.192-1.193 1.192-2.923 0-4.116l-7.03-7.04c-1.192-1.193-2.92-1.193-4.111 0-1.086 1.193-1.086 2.927.105 4.116zm62.517 54.372c-1.191-1.193-2.92-1.193-4.11 0-1.192 1.194-1.192 2.924 0 4.117l7.03 7.04c.54.541 1.297.867 1.947.867.757 0 1.407-.326 1.948-.867 1.192-1.193 1.192-2.924 0-4.117l-6.815-7.04zM29.96 67.691a26.523 26.523 0 0 1-7.355-17.87c-.11-14.622 11.572-26.535 26.068-26.646h.216c14.601 0 26.499 11.803 26.499 26.32 0 6.824-2.704 13.427-7.356 18.3-2.704 2.818-4.436 6.283-4.977 10.074-.541 3.25-3.355 5.741-6.705 5.741l-14.708.004c-3.354 0-6.274-2.382-6.705-5.74-.65-3.901-2.378-7.476-4.977-10.184zm-1.622-17.977a21.043 21.043 0 0 0 5.733 13.97c3.46 3.574 5.734 8.232 6.6 13.212.11.541.54.867.971.867h14.492c.54 0 .971-.432.971-.867.757-4.984 3.03-9.638 6.6-13.213a20.377 20.377 0 0 0 5.733-14.19c0-11.261-9.303-20.467-20.66-20.467h-.11c-11.353 0-20.437 9.316-20.33 20.688z"/>
</svg>
