<?xml version="1.0" encoding="UTF-8"?>
<svg width="35px" height="35px" viewBox="0 0 35 35" version="1.1" xmlns="http://www.w3.org/2000/svg" xmlns:xlink="http://www.w3.org/1999/xlink">
    <!-- Generator: Sketch 50.2 (55047) - http://www.bohemiancoding.com/sketch -->
    <title>ic_mission</title>
    <desc>Created with Sketch.</desc>
    <defs>
        <linearGradient x1="100%" y1="100%" x2="0%" y2="0%" id="linearGradient-1">
            <stop stop-color="#5172C1" offset="0%"></stop>
            <stop stop-color="#64D1B5" offset="100%"></stop>
        </linearGradient>
    </defs>
    <g id="Page-1" stroke="none" stroke-width="1" fill="none" fill-rule="evenodd">
        <g id="About-Us-2" transform="translate(-614.000000, -2621.000000)" fill="url(#linearGradient-1)">
            <g id="Our-Values" transform="translate(109.000000, 2350.000000)">
                <g id="ic_mission" transform="translate(500.000000, 266.000000)">
                    <g id="np_rocket_982014_000000" transform="translate(5.000000, 5.000000)">
                        <polygon id="Shape" fill-rule="nonzero" points="18.1995513 17.9976282 16.4958141 16.292141 9.73363462 23.8135513 10.6801603 24.7600769"></polygon>
                        <path d="M7.06192308,18.3974359 L7.3844391,17.715609 L7.38619224,17.715609 C8.2345384,15.9277372 9.19860891,14.19775 10.274814,12.5378526 L4.48724994,13.1969295 L7.04487179e-05,21.9469295 L5.44795506,18.783109 L7.06192308,18.3974359 Z" id="Shape" fill-rule="nonzero"></path>
                        <path d="M16.0820513,27.4296795 L15.8261429,29.1667115 L12.6623224,34.6092115 L21.4177071,30.1220321 L22.096034,24.13075 L22.0942808,24.1325027 C20.3887937,25.2490476 18.6079667,26.2446181 16.7639603,27.1157591 L16.0820513,27.4296795 Z" id="Shape" fill-rule="nonzero"></path>
                        <path d="M8.35557692,18.1869872 L11.1285192,20.9599295 L16.4673654,15.1265962 L19.3577372,18.0169679 L13.5244038,23.3558141 L16.2973462,26.1287564 C36.8926026,16.3426667 33.9584359,0.534333333 33.9584359,0.534333333 C33.9584359,0.534333333 18.1501026,-2.40162821 8.35503846,18.1868974 L8.35557692,18.1869872 Z M27.9326923,11.6926923 C26.8932821,12.7303526 25.3332692,13.0405962 23.9766154,12.4779487 C22.6217115,11.9153013 21.7382756,10.5919423 21.7382756,9.1248141 C21.7382756,7.65598077 22.6217115,6.33257692 23.9766154,5.77167949 C25.3332692,5.20903205 26.8932821,5.51927564 27.9326923,6.5551859 C28.6145192,7.23701282 28.9983974,8.16074359 28.9983974,9.1248141 C28.9983974,10.0888397 28.6145327,11.0125705 27.9326923,11.6926923 Z" id="Shape" fill-rule="nonzero"></path>
                        <path d="M4.20852564,23.94 C4.70808333,23.5736622 5.18484615,23.1810385 5.6405641,22.7638654 C6.10857692,22.3414378 6.53625,21.8751795 6.91483333,21.3721218 C6.32064103,21.5824583 5.74919872,21.8488846 5.20584615,22.1661282 C4.66949359,22.4746218 4.15064103,22.8111603 3.65287821,23.1757436 C3.15332051,23.5403269 2.67655769,23.9312051 2.22083974,24.3483782 C1.75282692,24.7690513 1.32515385,25.2353141 0.946570513,25.7383718 C1.54076282,25.5315397 2.11395513,25.266859 2.65730769,24.9496154 C3.19191026,24.6411218 3.71076282,24.3045833 4.20852564,23.94 Z" id="Shape" fill-rule="nonzero"></path>
                        <path d="M4.95878205,28.8651282 C4.48376923,29.341891 4.03505128,29.8414487 3.61262821,30.3655513 C3.17617821,30.8914038 2.78707692,31.4558013 2.45053846,32.0517436 C3.04648077,31.7152051 3.61087821,31.3260769 4.13673077,30.8896538 C4.65908333,30.4672263 5.16034615,30.0185128 5.63535897,29.5435 C6.11037179,29.0667372 6.55908974,28.5671795 6.98151282,28.0448718 C7.41796282,27.5172692 7.8070641,26.9528718 8.14360256,26.3569295 C7.54941026,26.6952224 6.98501282,27.0843462 6.45741026,27.5190192 C5.93505769,27.9431968 5.43554487,28.3919103 4.95878205,28.8651731 L4.95878205,28.8651282 Z" id="Shape" fill-rule="nonzero"></path>
                        <path d="M11.7245513,28.8530128 C11.3073827,29.3069808 10.91475,29.7854936 10.5501667,30.2833013 C10.1838288,30.789859 9.84904487,31.3157115 9.54405128,31.8590641 C9.22679423,32.4024167 8.96210897,32.973859 8.75529487,33.5680513 C9.25835256,33.1894455 9.72461538,32.7635 10.1452885,32.2937821 C10.5624571,31.8398141 10.9533397,31.3613013 11.3161731,30.8634936 C11.6825109,30.3639359 12.0190449,29.8468782 12.3257885,29.3105256 C12.6448,28.7671731 12.9112308,28.1939808 13.1197949,27.6015385 C12.6167372,27.9731308 12.1487244,28.3920449 11.7245513,28.8530577 L11.7245513,28.8530128 Z" id="Shape" fill-rule="nonzero"></path>
                    </g>
                </g>
            </g>
        </g>
    </g>
</svg>