<?xml version="1.0" encoding="UTF-8"?>
<svg width="55px" height="34px" viewBox="0 0 55 34" version="1.1" xmlns="http://www.w3.org/2000/svg" xmlns:xlink="http://www.w3.org/1999/xlink">
    <!-- Generator: Sketch 50.2 (55047) - http://www.bohemiancoding.com/sketch -->
    <title>np_deal_558180_000000</title>
    <desc>Created with Sketch.</desc>
    <defs>
        <linearGradient x1="100%" y1="100%" x2="0%" y2="0%" id="linearGradient-1">
            <stop stop-color="#5172C1" offset="0%"></stop>
            <stop stop-color="#64D1B5" offset="100%"></stop>
        </linearGradient>
    </defs>
    <g id="Page-1" stroke="none" stroke-width="1" fill="none" fill-rule="evenodd">
        <g id="For-Business---Pricing" transform="translate(-388.000000, -1668.000000)">
            <g id="Group-21" transform="translate(305.000000, 1618.000000)">
                <g id="np_deal_558180_000000" transform="translate(83.000000, 50.000000)">
                    <rect id="Rectangle-5" fill="#D2F6FF" x="8.46153846" y="2.53846154" width="46.5384615" height="31.3076923" rx="4.32"></rect>
                    <path d="M9.81030769,0.211538462 L9.81030769,0.214843538 C9.97887846,0.208233385 10.1474492,0.251201923 10.2928777,0.333829692 L15.7036085,3.473822 C16.1266854,3.71841123 16.2688138,4.25717431 16.0275246,4.68026815 L15.7829354,5.10665354 L17.2769046,5.97590738 L18.9064277,6.91793046 C20.3574123,6.10152738 22.04312,5.74786892 23.7156277,5.94290738 C24.7270354,6.06189354 25.7285431,6.37259277 26.6738662,6.88823046 L27.0870262,7.10968585 L27.2192377,7.03696908 L27.4572185,6.89484062 L27.4605235,6.89484062 C27.9265682,6.62380908 28.4124466,6.40565369 28.9049082,6.24039138 C29.4007035,6.07512908 29.9031158,5.96605138 30.4087774,5.90324985 C32.0944851,5.69501985 33.7933928,6.06521215 35.257662,6.90475754 L35.9749128,6.49159754 L36.8772512,5.96935985 L37.7762897,5.44382215 L38.3745458,5.10007215 L38.1266482,4.67038677 C37.8820589,4.25061831 38.0274874,3.71186369 38.4472643,3.46724062 L43.8612951,0.330548308 C43.9835897,0.261137462 44.1191097,0.221470615 44.2579297,0.214862154 C44.5884543,0.198335923 44.902462,0.366907538 45.0677243,0.654464462 L53.4036935,15.1583875 C53.6449828,15.578156 53.4995458,16.1169106 53.0797774,16.3582337 L47.6657466,19.494926 C47.4641251,19.6139206 47.2228358,19.6436629 46.9980805,19.5841698 C46.7700166,19.5246751 46.578312,19.3759398 46.4626258,19.1710098 L44.4596105,15.6905252 L43.8712712,16.0309668 L42.9689328,16.5565045 L42.0632943,17.0787422 L41.3691858,17.4819852 C41.3691858,18.8701852 41.0089105,20.2352852 40.3147935,21.4351314 C40.2453827,21.5640345 40.1462228,21.6731122 40.0239282,21.7557475 C39.9941808,21.8152423 39.9743495,21.8813506 39.9412962,21.9408437 C39.6702646,22.4101968 39.1943031,22.6349522 38.73815,22.8629822 C39.3000469,23.6992191 39.5479446,24.7106437 39.0190985,25.6360822 C38.4869438,26.5582206 37.4887446,26.8491283 36.4872369,26.7830437 C36.5169843,27.292056 36.5632588,27.8109514 36.2955323,28.2836129 C35.5915069,29.5065591 34.0578785,29.8965514 32.8051477,29.3049206 C32.7720952,29.6817214 32.8646433,30.0651391 32.6663277,30.4088975 C31.9259431,31.6979283 30.2501354,32.1474898 28.9677046,31.4005052 L27.0770585,30.3064283 L25.1864123,31.4005052 C23.9039815,32.1474983 22.2281738,31.6979791 21.4877892,30.4088975 C21.2894677,30.0651475 21.38202,29.6817298 21.3489692,29.3049206 C20.0962385,29.8965683 18.5625846,29.5065422 17.8585846,28.2836129 C17.5908531,27.8109598 17.6371292,27.2887052 17.66688,26.7830437 C16.6653723,26.8491495 15.6671646,26.5582883 15.1350185,25.6360822 C14.6590569,24.8064537 14.6888077,23.8215052 15.1019652,23.024936 C13.6244959,21.5441668 12.8246267,19.5576514 12.8147267,17.505136 L11.1852036,16.5598129 L9.69783438,15.6938591 L7.691519,19.1809437 C7.45022977,19.6007122 6.91146669,19.7428406 6.49167285,19.4982514 L1.07434208,16.3582591 C0.654573615,16.1169698 0.509136692,15.5749068 0.750425923,15.1551129 L9.08639515,0.651189846 C9.23844054,0.390075231 9.50947208,0.224804462 9.81025438,0.211587538 L9.81030769,0.211538462 Z M10.1738915,2.30052308 L2.71716077,15.2737538 L6.60752231,17.5312923 L14.0675531,4.55806154 L10.1738915,2.30052308 Z M43.9802762,2.30052308 L40.0899146,4.55806154 L47.5466454,17.5312923 L51.4370069,15.2737538 L43.9802762,2.30052308 Z M14.9072762,6.63046154 L10.5740377,14.1631769 L12.0680069,15.0291308 L13.04633,15.5976446 C13.2215092,14.8870108 13.45949,14.18626 13.8429077,13.5186446 L15.9813923,9.79692154 C16.3615015,9.13255538 16.8308462,8.55409077 17.3530923,8.05172923 L16.3978692,7.49313231 L14.9072762,6.63046154 Z M39.2511223,6.63376662 L38.6627831,6.97420815 L37.7571446,7.49644585 L36.8548062,8.02198354 L36.7986156,8.05173092 C37.3241533,8.55744323 37.7935233,9.13582323 38.1736156,9.80022323 L40.3121002,13.5219463 C40.3220163,13.5417776 40.3319315,13.5583047 40.3418476,13.578136 C40.3484586,13.5946622 40.3550688,13.6111893 40.3649848,13.6277155 C40.3682899,13.6376316 40.3749009,13.6475468 40.378206,13.6574629 C40.7186475,14.2788614 40.9764622,14.9233937 41.1384245,15.5811091 L41.1846981,15.5546668 L42.0870365,15.0291291 L42.989375,14.5068914 L43.5843227,14.1631414 L39.2511223,6.63376662 Z M31.8075915,7.60548969 L31.8075915,7.61210069 C30.64413,7.52616531 29.4409838,7.78397146 28.3436069,8.41858685 L27.5635546,8.878023 L27.5602487,8.878023 L25.0052872,10.3587922 L24.998677,10.3587922 C24.9887609,10.3654024 24.9821508,10.3687075 24.9755398,10.3753185 L22.5329475,11.7900031 L20.1862244,13.1584031 C21.0191613,13.9087046 22.0702705,14.25248 22.9560244,13.7401338 L23.0287412,13.7004704 C23.0750148,13.6608069 23.1279019,13.6244485 23.1840865,13.5947012 L27.1239481,11.3074627 L27.1669166,11.2810204 C27.1801378,11.2744102 27.190053,11.2677992 27.1999691,11.2611891 C28.2840614,10.6331822 29.6095614,10.7257345 30.5547998,11.4198429 L30.5581049,11.4198429 C30.7167588,11.5322206 30.8621957,11.6644322 30.9943988,11.8098691 C31.100168,11.9255552 31.1861034,12.0643752 31.2720388,12.1965868 C31.2918709,12.219724 31.3083972,12.2428612 31.3249234,12.2693035 C31.3348395,12.2792196 31.3447555,12.2858298 31.3513657,12.302356 C31.3811139,12.3552406 31.4075562,12.4114337 31.4273875,12.4676183 C31.6818937,12.9700222 31.7810545,13.5154106 31.7347783,14.0475568 L38.950186,18.2320414 C39.1518075,18.3510275 39.3269868,18.4964645 39.4856406,18.6551183 C39.7599806,17.2537183 39.5616625,15.7497645 38.7849237,14.3979491 L36.6464391,10.676226 C36.2200537,9.93584138 35.671416,9.317726 35.0401006,8.83516446 C34.0980775,8.11130523 32.9743006,7.69150292 31.8075391,7.60561831 L31.8075915,7.60548969 Z M23.0617454,7.64184808 C22.8204562,7.62532185 22.5758669,7.62862692 22.3345777,7.64515315 C20.3910469,7.77736469 18.57317,8.83171469 17.5088777,10.6793762 L15.3703931,14.4010993 C13.8896238,16.9759455 14.4515546,20.1225378 16.5536546,22.0098839 C16.7718015,22.0660736 16.9602062,22.204897 17.0791923,22.3966016 C17.2444546,22.5188962 17.3931915,22.6544162 17.5749877,22.7601855 L20.3778723,24.3864085 L20.9133269,24.6937993 L20.9265481,24.6937993 L20.9298532,24.6937993 L29.8542378,29.8665916 C30.3169824,30.1343232 30.8656455,29.9921947 31.1366685,29.5228416 C31.4076916,29.0534885 31.2589632,28.4915493 30.7929185,28.2205262 L30.7896135,28.2205262 L23.1213442,23.7716185 L21.3166673,22.7238262 C21.1117373,22.6081401 20.9630004,22.4164355 20.9001988,22.1883716 C20.8407032,21.9603078 20.8704506,21.7190185 20.9894427,21.5140885 C21.1084288,21.312467 21.3034419,21.1637301 21.5315058,21.1042285 C21.7595696,21.0447338 22.0008588,21.0810913 22.2024804,21.2000808 L30.0030035,25.7250578 L31.6755112,26.6934808 L33.4801881,27.7412732 C33.9462327,28.0123047 34.4948958,27.8635678 34.7659188,27.3942147 C35.0369504,26.9248616 34.884905,26.369607 34.4221688,26.0985839 L34.4188629,26.0985839 L25.8481706,21.1274301 L24.9458322,20.6051924 C24.5458891,20.3506862 24.416986,19.8284485 24.6549668,19.4186308 C24.8896391,19.0087708 25.4085683,18.8600339 25.8283283,19.0781893 L26.7306668,19.603727 L35.3047437,24.5748808 L36.2037822,25.0971185 C36.6698268,25.3681501 37.2184898,25.2194132 37.4895129,24.7500601 C37.7605445,24.280707 37.6118075,23.7221524 37.1457629,23.4510447 L36.2500245,22.9321155 L36.2434135,22.9321155 L28.1917519,18.2617693 L27.6695142,17.960987 L26.7671758,17.4354493 C26.3474073,17.1908601 26.2052788,16.652097 26.4498681,16.2323032 C26.6944573,15.8125347 27.2332204,15.6670978 27.6530142,15.911687 L28.5553527,16.4339247 L37.1294296,21.4050785 C37.5921742,21.6761101 38.1441373,21.5273732 38.4118604,21.0580201 C38.6828919,20.588667 38.534155,20.0267278 38.0681104,19.7590047 L30.3965412,15.310097 C30.3436565,15.2869598 30.2940804,15.2572124 30.2444958,15.2241616 L30.2411898,15.2241616 L29.4413122,14.758117 C29.0975622,14.5796293 28.912466,14.1962201 28.9851845,13.8160939 C29.0545962,13.4359847 29.3652937,13.1451193 29.7487029,13.1021516 C29.6759862,12.9996908 29.599966,12.8939216 29.5008052,12.8245116 C29.2495991,12.636107 28.9256829,12.5534801 28.5885668,12.6063647 C28.4233045,12.632807 28.2514252,12.6923001 28.0861629,12.7881524 L28.0233631,12.8245108 L27.8217415,12.9534138 C27.8118263,12.9633291 27.7986043,12.9699401 27.7886891,12.9798562 L23.8421429,15.2670946 C21.8027429,16.4503562 19.1651968,15.5678769 17.942166,13.4392331 C17.7008768,13.0194646 17.8463137,12.48071 18.2627822,12.2393869 L21.6473975,10.2661562 L24.0470052,8.87465615 C24.0701416,8.85812992 24.0965839,8.84160369 24.1197212,8.82838254 L25.2434981,8.17724177 C24.5295558,7.87315946 23.7958135,7.68806331 23.0620288,7.64178715 L23.0617454,7.64184808 Z M5.81120692,13.3963712 C5.98307769,13.3996771 6.15495692,13.4492558 6.30700231,13.5351912 C6.80279769,13.8260565 6.97466846,14.4640142 6.68711154,14.9663758 C6.39955462,15.4654712 5.76497308,15.6340419 5.26582692,15.346485 C4.76673154,15.0589281 4.59816077,14.4176619 4.88241769,13.9186004 C5.07412231,13.5880758 5.42778923,13.3864458 5.81124077,13.3963627 L5.81120692,13.3963712 Z M48.3439762,13.3963712 C48.7273938,13.3864551 49.0810523,13.5880758 49.2727992,13.9186088 C49.5570562,14.4177042 49.3884854,15.0589704 48.88939,15.3464935 C48.3902946,15.6340504 47.7557131,15.4654796 47.4681054,14.9663842 C47.1805485,14.4639804 47.3524192,13.8260227 47.8482146,13.5351996 C48.00026,13.4492642 48.1721308,13.3996796 48.34401,13.3963796 L48.3439762,13.3963712 Z M16.5505915,24.1780635 C16.5274543,24.3697681 16.5572017,24.5713896 16.6662777,24.7597942 C16.9373092,25.2324473 17.4859892,25.3778842 17.9520085,25.1068527 C17.9784508,25.0903265 18.0081982,25.0771053 18.0412523,25.0638842 L16.6893523,24.2805318 C16.6397728,24.2507845 16.6001085,24.211121 16.5505323,24.1780711 L16.5505915,24.1780635 Z M19.7897531,26.0786096 C19.7732268,26.0885257 19.7533947,26.0984418 19.7368685,26.1083578 C19.2708238,26.3793894 19.1187785,26.9379863 19.38981,27.4073732 C19.6608415,27.8767263 20.2095215,28.0221548 20.6755408,27.7511232 L21.6770485,27.1693925 L19.7897531,26.0786096 Z M23.4288915,28.1807942 C23.4090594,28.1973205 23.3892281,28.2138467 23.3660908,28.2270678 C22.9000462,28.4980994 22.7480008,29.0600048 23.0190324,29.5293832 C23.2900639,29.9987363 23.8387439,30.1441648 24.3014632,29.8731332 L25.3227708,29.284794 L23.4288247,28.1874171 L23.4288915,28.1807942 Z" id="Shape" fill="url(#linearGradient-1)" fill-rule="nonzero"></path>
                </g>
            </g>
        </g>
    </g>
</svg>