<svg xmlns="http://www.w3.org/2000/svg" width="66" height="60" viewBox="0 0 66 60">
    <defs>
        <linearGradient id="a" x1="100%" x2="0%" y1="100%" y2="0%">
            <stop offset="0%" stop-color="#5172C1"/>
            <stop offset="100%" stop-color="#64D1B5"/>
        </linearGradient>
    </defs>
    <g fill="none" fill-rule="evenodd">
        <rect width="56" height="54" x="10" y="6" fill="#D2F6FF" rx="3"/>
        <path fill="url(#a)" fill-rule="nonzero" d="M26.71 21.756c-1.391-.442-2.91-.126-3.986.948-1.075 1.074-1.391 2.592-.949 3.982l10.312 30.905c.443 1.39 1.708 2.276 3.1 2.402a3.567 3.567 0 0 0 2.72-1.012c.252-.252.507-.632.697-.948l6.326-13.147 13.094-6.32a3.405 3.405 0 0 0 1.962-3.412c-.064-1.454-1.013-2.654-2.404-3.096L26.71 21.756zm29.923 13.653c0 .064 0 .064-.064.126l-13.094 6.32a3.454 3.454 0 0 0-1.646 1.644l-6.326 13.082c0 .065 0 .065-.126.065-.065 0-.065 0-.065-.065L25 25.677a.49.49 0 0 1 .126-.506.491.491 0 0 1 .507-.126l30.933 10.303c.067-.003.067-.003.067.061zM14.5 14.488c-.697.632-1.772.632-2.404 0L6.845 9.242c-.697-.632-.697-1.706 0-2.403.632-.696 1.707-.696 2.404 0l5.251 5.247c.697.632.697 1.706 0 2.402zm7.591-3.728c-.948.126-1.771-.57-1.833-1.454l-.885-7.394A1.661 1.661 0 0 1 20.83.016a1.662 1.662 0 0 1 1.898 1.454l.884 7.394c.062.506-.126 1.01-.506 1.39a1.93 1.93 0 0 1-1.014.506zM36.01 3.176c.823.503 1.075 1.58.568 2.338l-3.86 6.384c-.061.126-.126.19-.252.316-.57.568-1.39.632-2.088.252-.82-.506-1.075-1.516-.568-2.338l3.86-6.385c.506-.82 1.517-1.073 2.34-.567zm7.782 10.931c.884-.316 1.897.129 2.15 1.013.252.693.061 1.39-.381 1.831-.126.129-.316.316-.568.38l-6.96 2.655c-.884.316-1.897-.129-2.213-1.013-.317-.883.128-1.896 1.013-2.212l6.959-2.654zm-34.92 9.48l-7.4-.947c-.888-.126-1.582-.948-1.456-1.896.126-.887.949-1.58 1.898-1.455l7.4.884c.888.126 1.582.948 1.456 1.896-.064.38-.254.76-.507 1.013-.316.38-.822.57-1.39.506zm3.099 9.104l-6.39 3.856c-.824.506-1.834.254-2.341-.568-.507-.822-.255-1.832.568-2.338l6.391-3.856c.823-.506 1.834-.255 2.34.568.445.696.316 1.518-.252 2.086-.064.062-.19.187-.316.252zm7.023 3.095c.885.38 1.327 1.329 1.013 2.277l-2.656 6.952c-.065.187-.19.377-.38.568-.505.444-1.202.632-1.834.38-.888-.316-1.33-1.328-1.014-2.212l2.657-6.953c.316-.886 1.33-1.328 2.214-1.012z"/>
    </g>
</svg>
