<?xml version="1.0" encoding="UTF-8"?>
<svg width="32px" height="44px" viewBox="0 0 32 44" version="1.1" xmlns="http://www.w3.org/2000/svg" xmlns:xlink="http://www.w3.org/1999/xlink">
    <!-- Generator: Sketch 50.2 (55047) - http://www.bohemiancoding.com/sketch -->
    <title>Group 23</title>
    <desc>Created with Sketch.</desc>
    <defs>
        <linearGradient x1="100%" y1="100%" x2="0%" y2="0%" id="linearGradient-1">
            <stop stop-color="#5172C1" offset="0%"></stop>
            <stop stop-color="#64D1B5" offset="100%"></stop>
        </linearGradient>
    </defs>
    <g id="Page-1" stroke="none" stroke-width="1" fill="none" fill-rule="evenodd">
        <g id="For-Business---Pricing" transform="translate(-704.000000, -1664.000000)">
            <g id="Group-24" transform="translate(610.000000, 1618.000000)">
                <g id="Group-23" transform="translate(94.000000, 46.000000)">
                    <rect id="Rectangle-5" fill="#D2F6FF" x="3" y="3" width="28.4" height="37.6923077" rx="4.32"></rect>
                    <path d="M11.1026043,28.8319381 C10.7044025,29.1749703 10.1887606,29.3814641 9.62212269,29.3814641 C8.98739409,29.3814641 8.41561558,29.1254701 8.00380436,28.7073358 C7.58007401,28.2960388 7.32481466,27.7158034 7.32481466,27.0843596 C7.32481466,26.4785179 7.56135453,25.9238802 7.94085427,25.5176993 C7.22614203,24.6934102 7.03894719,23.7086934 7.23123903,22.8349042 C7.3299378,22.3860824 7.5290387,21.9730422 7.80981353,21.6249246 C8.09570279,21.2750681 8.46327468,20.9815099 8.89211946,20.8006355 C9.76340099,20.4320057 10.8575999,20.4883258 11.9909629,21.2682438 C13.2536241,22.1352175 14.4737668,23.0158223 15.6428524,23.8947232 C16.3150461,24.3998607 16.9616677,24.9050419 17.5845033,25.4050678 L17.5845033,3.27373434 C17.5845033,2.82491251 17.4041219,2.42554714 17.111441,2.13199765 C16.8187427,1.83846127 16.4154177,1.65757379 15.972981,1.65757379 L3.26795357,1.65757379 C2.8204198,1.65757379 2.42220058,1.83847437 2.12949354,2.13199765 C1.83679522,2.4255384 1.65643123,2.82486882 1.65643123,3.27373434 L1.65643123,28.9430404 C1.65643123,29.3867506 1.83681265,29.7912276 2.12949354,30.0847771 C2.42217444,30.3783266 2.82037624,30.5592009 3.26795357,30.5592009 L12.4826271,30.5592009 C12.0401903,29.9669903 11.592613,29.405537 11.1195507,28.856011 L11.1008317,28.830412 L11.1026043,28.8319381 Z M19.2403738,26.4802218 L20.9829369,28.2278002 C21.3317893,28.5776567 21.336895,29.1510896 20.9829369,29.5077704 C20.6340845,29.8627472 20.0555013,29.8627472 19.7015432,29.5145969 L18.1461749,27.9479365 C18.0474762,27.9172175 17.9589844,27.8660187 17.8790052,27.7977539 C16.8647899,26.9307803 15.78928,26.068962 14.6559605,25.2207748 C13.5242965,24.365772 12.3160904,23.4987983 11.0534292,22.6318247 C10.4493261,22.2137034 9.92176513,22.1642164 9.53548246,22.3263392 C9.36701146,22.394604 9.2189633,22.5140685 9.09984169,22.6625427 C8.97561437,22.8178456 8.88882601,22.9987462 8.84458234,23.1932823 C8.74588356,23.6233526 8.87010827,24.1284989 9.29895566,24.5466507 C10.4442117,25.6627854 11.444835,26.6935946 12.3790666,27.7789718 C13.2248196,28.7705042 14.0161175,29.806425 14.7938234,30.9856909 C14.9674001,31.1102758 15.0865217,31.3031211 15.1171516,31.5284014 C15.1477824,31.6103191 15.1613953,31.6973573 15.1613953,31.7843954 C15.1613953,31.8219413 15.1613953,31.8594889 15.1545888,31.8970312 C15.2788161,33.1206857 15.4847217,34.043975 15.8506121,34.8477738 C16.2488139,35.7096358 16.8461384,36.4759052 17.7412059,37.3496944 C18.0645341,37.6671246 18.0764445,38.19277 17.7599245,38.5170332 C17.4434053,38.8481163 16.9192685,38.8532367 16.5908389,38.5358061 C15.5510951,37.5186717 14.8431789,36.6021979 14.356481,35.5338595 C13.9650839,34.6788568 13.7217524,33.7555674 13.5719791,32.6206462 L8.4771603,32.6581916 C8.1095884,32.6650181 7.88664924,32.8271475 7.7862776,33.0455948 L7.77436544,33.0899659 C7.71820699,33.2401484 7.69948751,33.4142247 7.71140228,33.5831762 C7.73012133,33.7709054 7.77947115,33.951806 7.8662595,34.1071002 C8.02111673,34.3938123 8.30869627,34.593495 8.68818294,34.5371705 C9.16808481,34.4620771 9.47778184,34.4057614 9.74665932,34.3630942 C10.8476542,34.1634203 11.4075398,34.0644374 12.8012417,34.3255484 C13.0633058,34.3750398 13.2930366,34.5439957 13.4053448,34.7999722 C13.8597181,35.8239658 14.5624938,36.765998 15.3708252,37.6329717 C16.1927487,38.5135764 17.1372178,39.3293461 18.0646535,40.0973194 C18.1888808,40.1843576 18.2892786,40.3089424 18.3505427,40.4591206 L18.6806757,41.2885213 L18.8865856,41.8380474 C19.310316,42.274942 21.1447731,42.1623062 22.9622228,41.7629539 C23.7399287,41.593998 24.4869655,41.3704303 25.1268347,41.1007964 C25.7241417,40.8448024 26.2210336,40.5580859 26.5205366,40.2577209 C26.6821986,40.102418 26.7638812,39.9641802 26.738357,39.8703177 C26.7077262,39.8020529 26.6821986,39.7337881 26.6753939,39.6586947 C26.4575735,38.3104816 26.2652773,37.2250606 26.0899798,36.2710576 C25.5420308,33.1888971 25.2186983,31.410605 25.356535,27.5231167 C25.375254,26.9240905 25.188064,26.4257685 24.8647401,25.9939856 C24.510782,25.5195617 23.962833,25.1082691 23.3349004,24.7276903 C22.1777514,24.0348191 21.5617118,22.9562137 20.9456722,21.8639771 C20.4726099,21.0277172 19.987611,20.17953 19.2405307,19.6368195 L19.2405307,26.4820843 L19.2403738,26.4802218 Z M13.7521714,14.5630474 C13.7521714,11.0695944 8.65735265,12.0235975 8.65735265,10.3511212 C8.65735265,9.88351293 9.08618871,9.65309471 9.71582902,9.65309471 C10.5003309,9.65309471 11.7817247,10.0643917 12.8010369,10.6583018 L13.7216766,8.73666457 C12.8946562,8.20076964 11.7680891,7.81337519 10.6109401,7.68881654 L10.6109401,5.71767911 L8.79349039,5.71767911 L8.79349039,7.75880705 C7.12581396,8.0762372 6.08092957,9.10020458 6.08092957,10.5798356 C6.08092957,14.0050019 11.1757484,12.9827559 11.1757484,14.6911012 C11.1757484,15.245739 10.6907495,15.5341768 9.91818416,15.5341768 C8.91586188,15.5341768 7.43028329,14.953937 6.439854,14.0869634 L5.48858882,15.9778869 C6.37176335,16.7083311 7.55448448,17.2322551 8.79161713,17.4251004 L8.79161713,19.5651849 L10.6090669,19.5651849 L10.6090669,17.4814161 C12.412881,17.2749135 13.7504289,16.2765481 13.7504289,14.5682028 L13.7521714,14.5630474 Z M8.71834235,26.2993474 C8.53796094,26.50585 8.42564403,26.7806305 8.42564403,27.0861072 C8.42564403,27.410366 8.56178177,27.7107355 8.77449645,27.9291828 C8.99231683,28.1476301 9.29012086,28.2790392 9.62024944,28.2790392 C9.90613869,28.2790392 10.1681984,28.1800564 10.3724268,28.0111005 C9.85680238,27.442788 9.30885342,26.8813347 8.71664336,26.3010513 L8.71834235,26.2993474 Z M19.2381956,17.7576208 C20.8803435,18.4061472 21.6342199,19.7355738 22.3744607,21.0462577 C22.8849881,21.9507606 23.3886759,22.8365207 24.1782748,23.3109446 C24.9678737,23.7853684 25.670693,24.3280789 26.1760798,25.0022073 C26.7240288,25.7189766 27.0354684,26.5620521 26.9980033,27.5723709 C26.873776,31.2979024 27.1783847,33.0064661 27.7127155,35.9773495 C27.8811865,36.9381681 28.0802874,38.0235891 28.284494,39.3086709 C28.5703833,40.0954307 28.31002,40.8122 27.675294,41.4368282 C27.2209207,41.8856501 26.5487705,42.2850154 25.7591716,42.6160942 C25.0121348,42.9335243 24.1595423,43.1963339 23.3069933,43.3840675 C20.8309854,43.9199625 18.1747094,43.8021888 17.4528526,42.6724099 C17.415415,42.6092655 17.3898895,42.5546537 17.3660643,42.4915093 C17.3099058,42.3293821 17.2350323,42.1228795 17.1414392,41.8924831 L16.8980946,41.2678549 C15.970659,40.4998815 15.0193938,39.6704808 14.1668448,38.7591186 C13.3449214,37.8734022 12.6182726,36.9245108 12.0890562,35.8834783 C11.2620357,35.7657221 10.8127594,35.8459325 10.0299565,35.9824611 C9.69471787,36.0456055 9.30160871,36.1138703 8.92212204,36.1701904 C7.75303647,36.351091 6.88685193,35.7520691 6.42058561,34.8970358 C6.22828942,34.5420589 6.10406646,34.135878 6.0717332,33.7296971 C6.02748952,33.3115758 6.07854009,32.8934371 6.22148471,32.5128582 L6.25211592,32.4309405 C6.2827467,32.3626757 6.31507908,32.2875866 6.35081469,32.2193175 L3.26560677,32.2193175 C2.36369968,32.2193175 1.54857224,31.8506876 0.958061179,31.2584988 C0.367550117,30.66631 0,29.8488147 0,28.9443118 L0,3.2750057 C0,2.37050279 0.367571899,1.55302928 0.958061179,0.960818632 C1.54855046,0.368607984 2.36369968,0 3.26560677,0 L15.9706342,0 C16.8657452,0 17.6808727,0.368629829 18.2781797,0.960818632 C18.8635938,1.55302928 19.2362409,2.37050279 19.2362409,3.2750057 L19.2362409,17.7571883 L19.2381956,17.7576208 Z" id="Shape" fill="url(#linearGradient-1)" fill-rule="nonzero"></path>
                </g>
            </g>
        </g>
    </g>
</svg>