<?xml version="1.0" encoding="UTF-8"?>
<svg width="39px" height="44px" viewBox="0 0 39 44" version="1.1" xmlns="http://www.w3.org/2000/svg" xmlns:xlink="http://www.w3.org/1999/xlink">
    <!-- Generator: Sketch 50.2 (55047) - http://www.bohemiancoding.com/sketch -->
    <title>Group 25</title>
    <desc>Created with Sketch.</desc>
    <defs>
        <linearGradient x1="100%" y1="100%" x2="0%" y2="0%" id="linearGradient-1">
            <stop stop-color="#5172C1" offset="0%"></stop>
            <stop stop-color="#64D1B5" offset="100%"></stop>
        </linearGradient>
    </defs>
    <g id="Page-1" stroke="none" stroke-width="1" fill="none" fill-rule="evenodd">
        <g id="For-Business---Pricing" transform="translate(-1007.000000, -1660.000000)">
            <g id="Group-25" transform="translate(1008.000000, 1661.000000)">
                <rect id="Rectangle-5" fill="#D2F6FF" x="3" y="2" width="34.852" height="40.6923077" rx="4.32"></rect>
                <path d="M2.11518966,6.90296495 L2.17384874,6.90296495 C3.81114422,8.6886638 5.53818841,10.403606 7.34279102,12.0272979 L7.34279102,33.1244266 L2.11510574,33.1244266 L2.11510574,6.8963398 L2.11518966,6.90296495 Z M15.1777777,18.1467284 L15.1777777,33.1239849 L9.95009242,33.1239849 L9.95009242,14.2714571 C11.6132702,15.6361498 13.3593064,16.9370643 15.1777777,18.1395732 L15.1777777,18.1467284 Z M23.0122388,22.447776 L23.0122388,33.129285 L17.7845535,33.129285 L17.7845535,19.7822572 C19.4736135,20.7725846 21.2196056,21.6714409 23.0122388,22.4478643 L23.0122388,22.447776 Z M30.852,24.9392742 L30.852,33.129285 L25.6243147,33.129285 L25.6243147,23.4830661 C27.3323668,24.0903716 29.0731913,24.5820902 30.852,24.93923 L30.852,24.9392742 Z M30.852,20.6245346 L30.852,22.675902 C17.0204528,19.7256342 5.99166014,8.09695288 2.1994241,3.64750192 L3.06121841,2.97038184 L3.7073245,2.51543474 C3.74528131,2.56719483 14.6720579,16.9497846 30.852,20.6245346 Z M0.658981618,0 L5.99708607,0.66596011 L0,5.33624941 L0.658981618,0 Z" id="Combined-Shape" stroke="url(#linearGradient-1)" fill-rule="nonzero" transform="translate(15.426000, 16.564643) scale(-1, 1) translate(-15.426000, -16.564643) "></path>
            </g>
        </g>
    </g>
</svg>