<svg xmlns="http://www.w3.org/2000/svg" width="45" height="41" viewBox="0 0 45 41">
    <defs>
        <linearGradient id="a" x1="100%" x2="0%" y1="100%" y2="0%">
            <stop offset="0%" stop-color="#5172C1"/>
            <stop offset="100%" stop-color="#64D1B5"/>
        </linearGradient>
    </defs>
    <g fill="none" fill-rule="evenodd" transform="translate(1 1)">
        <rect width="37.674" height="39" x="6" y=".143" fill="#D2F6FF" rx="3"/>
        <path fill-rule="nonzero" stroke="url(#a)" stroke-width="2" d="M16.5 4.796a2.497 2.497 0 1 1 2.82 0 3.633 3.633 0 0 1 2.25 3.375v1.242a.514.514 0 0 1-.51.51h-6.293a.511.511 0 0 1-.517-.526v-1.24c0-1.473.89-2.8 2.25-3.361zM34.853 13.2H20.56a2.272 2.272 0 0 0-2.267 2.269v5.04a2.271 2.271 0 0 0 2.268 2.268h14.292a2.272 2.272 0 0 0 2.272-2.268v-5.04a2.272 2.272 0 0 0-2.272-2.27zm0-12.87h-8.067a2.274 2.274 0 0 0-2.27 2.269v5.04a2.274 2.274 0 0 0 2.27 2.27h8.067a2.272 2.272 0 0 0 2.272-2.27v-5.04a2.272 2.272 0 0 0-2.272-2.27zM15.277 22.313v-1.241a3.631 3.631 0 0 0-2.25-3.375 2.498 2.498 0 1 0-2.82 0 3.633 3.633 0 0 0-2.25 3.375v1.24c0 .282.228.51.51.51h6.3a.51.51 0 0 0 .51-.51zm-9.832 8.332a2.497 2.497 0 1 0-2.82 0 3.635 3.635 0 0 0-2.25 3.375v1.23c0 .281.228.51.51.51h6.3a.51.51 0 0 0 .51-.51v-1.245c0-1.472-.888-2.8-2.25-3.36zm29.408-4.5H13.005a2.274 2.274 0 0 0-2.27 2.269v5.028a2.274 2.274 0 0 0 2.27 2.27h21.848a2.272 2.272 0 0 0 2.272-2.27v-5.04a2.272 2.272 0 0 0-2.272-2.268v.01z"/>
    </g>
</svg>
