<svg xmlns="http://www.w3.org/2000/svg" width="61" height="55" viewBox="0 0 61 55">
    <defs>
        <linearGradient id="a" x1="100%" x2="0%" y1="100%" y2="0%">
            <stop offset="0%" stop-color="#5172C1"/>
            <stop offset="100%" stop-color="#64D1B5"/>
        </linearGradient>
    </defs>
    <g fill="none" fill-rule="evenodd" transform="translate(1 1)">
        <rect width="44" height="49" x="16" y="5" fill="#D2F6FF" rx="3"/>
        <path fill="url(#a)" fill-rule="nonzero" stroke="url(#a)" stroke-width=".75" d="M20.58 0c-5.048 0-9.147 4.099-9.147 9.146v16.006h-6.86C2.061 25.152 0 27.213 0 29.726a4.588 4.588 0 0 0 4.573 4.573h50.305a4.588 4.588 0 0 0 4.573-4.573c0-2.513-2.06-4.574-4.573-4.574h-6.86V9.146C48.018 4.1 43.92 0 38.872 0H20.579zm0 2.287h18.292a6.82 6.82 0 0 1 6.86 6.86v16.005H13.72V9.146a6.82 6.82 0 0 1 6.86-6.86zM4.572 27.439h50.305c1.286 0 2.287 1 2.287 2.287 0 1.286-1 2.286-2.287 2.286H4.573c-1.286 0-2.286-1-2.286-2.286 0-1.287 1-2.287 2.286-2.287zm5.708 8.938a1.14 1.14 0 0 0-.792 1.963l4.58 4.55a.946.946 0 0 0 .142.118 6.821 6.821 0 0 0-.491 2.515c0 3.779 3.078 6.86 6.86 6.86 3.78 0 6.859-3.081 6.859-6.86 0-.434-.049-.854-.126-1.266a3.403 3.403 0 0 1 2.418-1.02c.912 0 1.767.38 2.407 1.02a6.841 6.841 0 0 0-.126 1.266c0 3.779 3.079 6.86 6.86 6.86s6.86-3.081 6.86-6.86a6.8 6.8 0 0 0-.486-2.5c.057-.04.111-.084.16-.132l4.576-4.55a1.143 1.143 0 1 0-1.612-1.621l-4.347 4.319c-1.261-1.447-3.09-2.376-5.151-2.376-2.495 0-4.662 1.35-5.865 3.347-.952-.669-2.084-1.06-3.273-1.06a5.7 5.7 0 0 0-3.295 1.057c-1.2-1.995-3.367-3.344-5.86-3.344-2.055 0-3.881.926-5.139 2.367l-4.339-4.31a1.134 1.134 0 0 0-.82-.343zM20.58 40.95a4.538 4.538 0 0 1 4.573 4.573 4.54 4.54 0 0 1-4.573 4.573 4.54 4.54 0 0 1-4.573-4.573 4.538 4.538 0 0 1 4.573-4.573zm18.293 0a4.538 4.538 0 0 1 4.573 4.573 4.54 4.54 0 0 1-4.573 4.573 4.54 4.54 0 0 1-4.573-4.573 4.538 4.538 0 0 1 4.573-4.573zM21 13h18a1 1 0 0 1 1 1v.25a1 1 0 0 1-1 1H21a1 1 0 0 1-1-1V14a1 1 0 0 1 1-1z"/>
    </g>
</svg>
