<svg xmlns="http://www.w3.org/2000/svg" width="63" height="62" viewBox="0 0 63 62">
    <defs>
        <linearGradient id="a" x1="100%" x2="0%" y1="100%" y2="0%">
            <stop offset="0%" stop-color="#5172C1"/>
            <stop offset="100%" stop-color="#64D1B5"/>
        </linearGradient>
    </defs>
    <g fill="none" fill-rule="evenodd" transform="translate(1 1)">
        <rect width="49" height="53" x="13" y="7" fill="#D2F6FF" rx="3"/>
        <path fill="url(#a)" fill-rule="nonzero" stroke="url(#a)" stroke-width=".9" d="M30.476 51.342c-.512-1.419-2.989-2.22-4.456-2.513-2.626-.457-7.358-3.151-7.367-3.151-2.354-1.747-5.623-.776-7.796.236l-.041-.236a.701.701 0 0 0-.812-.575l-9.42 1.6a.695.695 0 0 0-.454.284.71.71 0 0 0-.121.525l2.02 11.903a.702.702 0 0 0 .81.575l9.42-1.6a.704.704 0 0 0 .575-.811l-.124-.723c4.019.672 9.243 2.455 9.282 2.47 1.29.486 2.552.672 3.734.672 2.53 0 4.695-.863 5.983-1.525 2.513-1.3 6.077-2.605 7.834-4.403.674-.689.923-1.713.65-2.677-.246-.892-.899-1.55-1.733-1.757-2.404-.61-6.152.87-7.984 1.706zM3.298 58.485L1.512 47.97l8.032-1.363 1.786 10.516-8.032 1.363zm27.77-1.261c-1.681.865-5.035 2.114-8.597.778-.244-.085-5.814-1.986-10.004-2.607l-1.363-8.038c1.633-.804 4.765-1.998 6.783-.505.203.116 5.019 2.864 7.877 3.36.887.178 3.683 1.012 3.371 1.862-1.249 1.226-3.127 1.636-5.171.452-1.682-.976-3.712-1.261-3.796-1.273a.705.705 0 0 0-.19 1.394c.016.003 1.835.259 3.28 1.095 2.523 1.462 5.068 1.082 6.854-.665 1.53-.792 5.792-2.636 8.005-2.078.493.123.672.585.727.778.107.375.083.916-.302 1.31-1.539 1.575-5.072 2.892-7.474 4.137zM57.874.598a.7.7 0 0 0-.812-.575l-9.42 1.6a.695.695 0 0 0-.454.285.71.71 0 0 0-.12.525l.123.722C43.172 2.483 37.948.7 37.909.685c-5.091-1.911-9.223.658-11.79 1.849-2.09.971-4.46 2.073-5.763 3.407-1.392 1.424-.776 3.97 1.087 4.437 2.407.609 6.152-.872 7.984-1.706.02.05.041.101.063.15.734 1.558 3.774 2.237 4.393 2.36 2.627.457 7.358 3.152 7.368 3.152.942.698 2.032.962 3.139.962 1.66 0 3.354-.595 4.656-1.204l.041.24a.702.702 0 0 0 .81.574l9.42-1.6a.695.695 0 0 0 .454-.284.71.71 0 0 0 .12-.525L57.875.598zM34.142 9.803c-1.174-.237-3.061-.904-3.38-1.58-.03-.063-.039-.153.01-.283 1.38-1.358 3.3-1.535 5.17-.452 1.683.974 3.712 1.261 3.797 1.274a.7.7 0 0 0 .79-.6.703.703 0 0 0-.6-.792c-.018-.003-1.845-.264-3.283-1.095-2.414-1.4-5.024-1.136-6.858.667-1.535.795-5.795 2.636-8.001 2.076-.778-.196-1.078-1.424-.426-2.09 1.124-1.15 3.369-2.195 5.35-3.115 2.373-1.102 6.146-3.519 10.722-1.8.247.084 5.817 1.986 10.007 2.607l1.365 8.037c-.712.35-2.454 1.217-4.167 1.253-.606.013-1.478-.236-2.618-.748-.203-.116-5.02-2.864-7.878-3.359zm16.217 3.603L48.573 2.889l8.032-1.362 1.786 10.516-8.032 1.363zm-3.618 16.76c-.082-9.392-7.745-16.999-17.142-16.999-9.405 0-17.055 7.615-17.143 16.995-.017.06-.038.119-.038.184 0 .073.021.138.04.203a17.072 17.072 0 0 0 4.831 11.684l.423.42a17.077 17.077 0 0 0 11.585 4.8c.2.096.394.099.6 0a17.071 17.071 0 0 0 11.584-4.8.65.65 0 0 0 .423-.42 17.066 17.066 0 0 0 4.83-11.69.537.537 0 0 0 .044-.197c0-.063-.022-.121-.037-.18zm-1.433.883a15.663 15.663 0 0 1-4.12 9.89l-1.416-1.416a.703.703 0 1 0-.995.996l1.416 1.413a15.654 15.654 0 0 1-9.888 4.094v-1.999a.702.702 0 1 0-1.407 0v1.999a15.653 15.653 0 0 1-9.888-4.094l1.414-1.413a.703.703 0 1 0-.993-.996l-1.416 1.416a15.663 15.663 0 0 1-4.12-9.89h2.027a.702.702 0 1 0 0-1.407h-2.03a15.65 15.65 0 0 1 4.096-9.917l1.443 1.443a.703.703 0 1 0 .996-.996l-1.446-1.445a15.667 15.667 0 0 1 9.92-4.122v2.056a.702.702 0 1 0 1.406 0v-2.056a15.664 15.664 0 0 1 9.92 4.122l-1.445 1.445c-.665.662.348 1.641.995.996l1.445-1.443a15.663 15.663 0 0 1 4.096 9.917h-2.037a.702.702 0 1 0 0 1.407h2.027zm-8.15-7.924c-.082-.085-.017-.017-.104-.075-.111-.077-.12-.087-.275-.114-.032-.004-.058-.021-.09-.021l-2.962-.138a.701.701 0 0 0-.735.67.701.701 0 0 0 .67.734l1.425.065-4.787 5.04v-8.493l1.073 1.073a.703.703 0 1 0 .996-.996L30.097 18.6a.706.706 0 0 0-.996 0l-2.271 2.272a.703.703 0 1 0 .993.995l1.073-1.073v10.253c.01.624.764.943 1.206.49l5.768-6.07-.05 1.078c-.02.39.282.718.669.735h.033a.701.701 0 0 0 .701-.67l.136-2.962c0-.075-.037-.263-.051-.295a1.514 1.514 0 0 0-.15-.227z"/>
    </g>
</svg>
