<svg xmlns="http://www.w3.org/2000/svg" width="65" height="55" viewBox="0 0 65 55">
    <defs>
        <linearGradient id="a" x1="100%" x2="0%" y1="100%" y2="0%">
            <stop offset="0%" stop-color="#5172C1"/>
            <stop offset="100%" stop-color="#64D1B5"/>
        </linearGradient>
    </defs>
    <g fill="none" fill-rule="evenodd" transform="translate(1)">
        <rect width="56" height="54" x="8" fill="#D2F6FF" rx="3"/>
        <path fill="url(#a)" fill-rule="nonzero" stroke="url(#a)" stroke-width="1.5" d="M4.186 8A4.19 4.19 0 0 0 0 12.186V49.86a4.19 4.19 0 0 0 4.186 4.187h51.628A4.19 4.19 0 0 0 60 49.86V21.953a4.19 4.19 0 0 0-4.186-4.186H31.09l-3.99-5.973c-.532-.799-1.128-1.717-1.875-2.464-.747-.747-1.706-1.33-2.9-1.33H4.186zm0 1.395h18.14c.74 0 1.324.344 1.918.938.594.594 1.14 1.414 1.679 2.224l4.186 6.279a.709.709 0 0 0 .589.327h25.116a2.768 2.768 0 0 1 2.79 2.79v27.908a2.768 2.768 0 0 1-2.79 2.79H4.186a2.768 2.768 0 0 1-2.79-2.79V12.186a2.768 2.768 0 0 1 2.79-2.79zM30 25.442a6.28 6.28 0 0 0-6.28 6.279v2.093h-2.223a.722.722 0 0 0-.567.698v11.162c0 .366.333.698.698.698h16.744a.725.725 0 0 0 .698-.698V34.512a.725.725 0 0 0-.698-.698H36.28v-2.093A6.28 6.28 0 0 0 30 25.44zm0 1.395a4.858 4.858 0 0 1 4.884 4.884v2.093h-9.768v-2.093A4.858 4.858 0 0 1 30 26.837zm-7.674 8.372h15.348v9.768H22.326v-9.768z"/>
    </g>
</svg>
