<?xml version="1.0" encoding="UTF-8"?>
<svg width="48px" height="39px" viewBox="0 0 48 39" version="1.1" xmlns="http://www.w3.org/2000/svg" xmlns:xlink="http://www.w3.org/1999/xlink">
    <!-- Generator: Sketch 50.2 (55047) - http://www.bohemiancoding.com/sketch -->
    <title>Group 7</title>
    <desc>Created with Sketch.</desc>
    <defs>
        <linearGradient x1="100%" y1="100%" x2="0%" y2="0%" id="linearGradient-1">
            <stop stop-color="#5172C1" offset="0%"></stop>
            <stop stop-color="#64D1B5" offset="100%"></stop>
        </linearGradient>
    </defs>
    <g id="Page-1" stroke="none" stroke-width="1" fill="none" fill-rule="evenodd">
        <g id="Secure-Multiparty-Computation" transform="translate(-696.000000, -2966.000000)">
            <g id="Group-20" transform="translate(620.000000, 2931.000000)">
                <g id="Group-25" transform="translate(45.000000, 0.000000)">
                    <g id="Group-7" transform="translate(32.000000, 36.000000)">
                        <rect id="Rectangle-5" fill="#D2F6FF" x="7" y="3" width="39" height="34" rx="4.32"></rect>
                        <path d="M0.00231204032,0.586554849 C0.0294737983,0.883247618 0.29064463,1.09845137 0.587364143,1.07129015 L2.18991909,1.07129015 L2.18991909,26.7455459 L0.587364143,26.7455459 C0.192472695,26.7747974 -0.0227310566,27.0359699 0.0065161997,27.330598 C0.0336784925,27.6231133 0.292762756,27.8404031 0.587342748,27.8153333 L17.8810935,27.8153333 L13.4579006,36.65744 C13.3241806,36.9248802 13.4307389,37.2508362 13.6981796,37.3845563 C13.9656203,37.5182764 14.2915758,37.4096288 14.4252959,37.1421913 L19.0658106,27.8149482 L26.9782953,27.8149482 L31.6188101,37.1421913 C31.7525302,37.4096315 32.0784755,37.5182764 32.3459264,37.3845563 C32.4733777,37.3197876 32.5715817,37.20696 32.617544,37.0711485 C32.6614213,36.933251 32.650974,36.784902 32.588293,36.6574507 L28.1651001,27.815344 L45.4588509,27.815344 C45.6009258,27.8174332 45.7388286,27.7610215 45.8412047,27.6607315 C45.9435862,27.5604414 46,27.4225439 46,27.2804637 C46,27.1362974 45.9435862,27.0004859 45.8412047,26.8981098 C45.7388233,26.7978197 45.6009258,26.7434973 45.4588509,26.7455833 L43.8562959,26.7455833 L43.8562959,1.07132759 L45.4588509,1.07132759 C45.6009258,1.07341683 45.7388286,1.01909331 45.8412047,0.918801113 C45.9414948,0.81641967 46,0.680613555 46,0.53644726 C46,0.394372347 45.9414948,0.256469501 45.8412047,0.15617944 C45.7388233,0.055889378 45.6009258,-0.000524450162 45.4588509,0.00156693192 L0.587205284,0.00156693192 C0.225349205,0.00156693192 -0.0248491827,0.291926718 0.00231204032,0.586554849 Z M3.25756697,1.0712634 L42.786293,1.0712634 L42.786293,26.7455191 L3.25756697,26.7455191 L3.25756697,1.0712634 Z M20.250715,5.35030603 C19.9958124,5.40045106 19.8119473,5.62610102 19.8182161,5.88518635 L19.8182161,21.9315962 C19.8182161,22.2261976 20.0564037,22.4664765 20.3510051,22.4664765 L25.6935502,22.4664765 C25.9881516,22.4664765 26.2284306,22.2261976 26.2284306,21.9315962 L26.2284306,5.88518635 C26.2284306,5.59058497 25.9881516,5.35030603 25.6935502,5.35030603 L20.3510051,5.35030603 C20.317575,5.34821678 20.284145,5.34821678 20.250715,5.35030603 Z M20.8858854,6.42006668 L25.1586699,6.42006668 L25.1586699,21.3967159 L20.8858854,21.3967159 L20.8858854,6.42006668 Z M29.9328512,9.62934865 C29.6507875,9.6481529 29.4314009,9.88216518 29.4334923,10.164229 L29.4334923,21.9315962 C29.4334923,22.2261976 29.6716799,22.4664765 29.9662813,22.4664765 L35.3088264,22.4664765 C35.6034278,22.4664765 35.8437068,22.2261976 35.8437068,21.9315962 L35.8437068,10.164229 C35.8478858,9.90514364 35.6640191,9.6774023 35.4091165,9.62934865 C35.3756865,9.62725941 35.3422565,9.62725941 35.3088264,9.62934865 L29.9662813,9.62934865 L29.9328512,9.62934865 Z M30.5011616,10.6991093 L34.7739461,10.6991093 L34.7739461,21.3967159 L30.5011616,21.3967159 L30.5011616,10.6991093 Z M10.6351713,12.8386306 C10.3802688,12.8866864 10.1964037,13.1123396 10.2026725,13.3735109 L10.2026725,21.9315962 C10.2026725,22.2261976 10.44086,22.4664765 10.7354614,22.4664765 L16.0780066,22.4664765 C16.372608,22.4664765 16.6128869,22.2261976 16.6128869,21.9315962 L16.6128869,13.3735109 C16.6128869,13.0789096 16.372608,12.8386306 16.0780066,12.8386306 L10.7354614,12.8386306 C10.7020314,12.8365414 10.6686014,12.8365414 10.6351713,12.8386306 Z M11.2703417,13.9083913 L15.5431262,13.9083913 L15.5431262,21.3967159 L11.2703417,21.3967159 L11.2703417,13.9083913 Z" id="Shape" stroke="url(#linearGradient-1)" stroke-width="1.25" fill="url(#linearGradient-1)" fill-rule="nonzero"></path>
                    </g>
                </g>
            </g>
        </g>
    </g>
</svg>